<svg xmlns="http://www.w3.org/2000/svg" viewBox="0 0 23.64 23.1"><defs><style>.cls-1{fill:#7e7e7f;}.cls-2{fill:none;stroke:#7e7e7f;stroke-linecap:round;stroke-linejoin:round;stroke-width:2px;}</style></defs><title>Asset 1</title><g id="Layer_2" data-name="Layer 2"><g id="Layer_1-2" data-name="Layer 1"><path class="cls-1" d="M21.92,13h0a.85.85,0,0,1,.84.84h0v0h0v0h0a.85.85,0,0,1-.85.85h0a.85.85,0,0,1-.84-.86h0v0h0A.85.85,0,0,1,21.92,13Z"/><path class="cls-1" d="M3.23,17.06h0a.86.86,0,0,1,.79.52H4a.85.85,0,0,1-.46,1.11h0a.85.85,0,0,1-1.11-.46h0a.85.85,0,0,1,.46-1.11A1,1,0,0,1,3.23,17.06Z"/><path class="cls-1" d="M20.35,16.3h0a1,1,0,0,1,.33.07h0a.86.86,0,0,1,.46,1.11h0a.85.85,0,0,1-1.12.45h0a.85.85,0,0,1-.45-1.11h0A.87.87,0,0,1,20.35,16.3Z"/><path class="cls-1" d="M5.39,19.33h0a.83.83,0,0,1,.6.25H6a.85.85,0,0,1,0,1.2H6a.85.85,0,0,1-1.2,0h0a.84.84,0,0,1,0-1.2A.82.82,0,0,1,5.39,19.33Z"/><path class="cls-1" d="M18.34,18.78h0a.82.82,0,0,1,.6.25h0a.85.85,0,0,1,0,1.2h0a.84.84,0,0,1-1.2,0h0a.85.85,0,0,1,0-1.2h0A.86.86,0,0,1,18.34,18.78Z"/><path class="cls-1" d="M8.29,20.91h0a1,1,0,0,1,.33.06h0a.86.86,0,0,1,.46,1.11h0A.85.85,0,0,1,8,22.54H8a.85.85,0,0,1-.46-1.11A.86.86,0,0,1,8.29,20.91Z"/><path class="cls-1" d="M15.48,20.5h0a.84.84,0,0,1,.78.53h0a.85.85,0,0,1-.46,1.11h0a.85.85,0,0,1-1.11-.47h0a.84.84,0,0,1,.46-1.1A1,1,0,0,1,15.48,20.5Z"/><path class="cls-1" d="M12,21.4h0a.85.85,0,0,1,.84.86h0a.85.85,0,0,1-.85.84h0a.83.83,0,0,1-.84-.85A.84.84,0,0,1,12,21.4Z"/><path class="cls-2" d="M1.69,14.92A10.2,10.2,0,0,1,16.43,2.47a9.54,9.54,0,0,1,4.66,7.17"/><path class="cls-1" d="M21.51,12,18.18,9.08a.43.43,0,0,1,.17-.74L23.1,7.07a.43.43,0,0,1,.51.56L22.2,11.78A.43.43,0,0,1,21.51,12Z"/><circle class="cls-1" cx="11.57" cy="12.15" r="2.4"/></g></g></svg>