<svg xmlns="http://www.w3.org/2000/svg" viewBox="0 0 23.02 23.02"><defs><style>.cls-1{fill:#787878;}.cls-2{fill:#fff;}</style></defs><title>Asset 1</title><g id="Layer_2" data-name="Layer 2"><g id="Layer_1-2" data-name="Layer 1"><path class="cls-1" d="M19.37,8.25A1.44,1.44,0,0,0,18,7.19H13v-.3a3.6,3.6,0,1,0-2.88,0v.3H5A1.45,1.45,0,0,0,3.65,8.25l-3.6,13a1.43,1.43,0,0,0,.24,1.25A1.45,1.45,0,0,0,1.44,23H21.58A1.44,1.44,0,0,0,23,21.2ZM11.44,5.63a2,2,0,1,1,2-2A2,2,0,0,1,11.44,5.63Z"/><path class="cls-2" d="M11.41,19.62H9.69l-1.87-3-.64.46v2.55H5.67V12.48H7.18v3.27l.6-.84,1.93-2.43h1.68L8.9,15.64Z"/><path class="cls-2" d="M15,15.61h2.83v3.7a8.07,8.07,0,0,1-1.29.32,8.55,8.55,0,0,1-1.25.09,3.17,3.17,0,0,1-2.47-.95A4,4,0,0,1,12,16a3.58,3.58,0,0,1,1-2.69,3.73,3.73,0,0,1,2.74-1,5.33,5.33,0,0,1,2.12.44L17.34,14a3.59,3.59,0,0,0-1.63-.39,2,2,0,0,0-1.57.66,2.57,2.57,0,0,0-.59,1.77A2.81,2.81,0,0,0,14,17.84a1.64,1.64,0,0,0,1.38.62,4.47,4.47,0,0,0,1-.1V16.87H15Z"/></g></g></svg>