<?xml version="1.0" encoding="utf-8"?>
<!-- Generator: Adobe Illustrator 22.1.0, SVG Export Plug-In . SVG Version: 6.00 Build 0)  -->
<svg version="1.1" id="Layer_1" xmlns="http://www.w3.org/2000/svg" xmlns:xlink="http://www.w3.org/1999/xlink" x="0px" y="0px"
	 viewBox="0 0 272.5 408.6" style="enable-background:new 0 0 272.5 408.6;" xml:space="preserve">
<style type="text/css">
	.st0{fill:#787878;}
	.st1{fill:#FFFFFF;}
</style>
<title>Solution_v2</title>
<path class="st0" d="M133.4,0h5.2c1.1,0.3,2.1,0.5,3.2,0.6c3.5,0.3,7,0.2,10.5,0.7C168.1,3.1,183.6,7.5,198,14
	c19.6,9,37.1,21,50.5,38.2c14.3,18.3,22.4,39,23.3,62.4c0.1,1,0.3,2,0.6,3v4.3c-0.3,0.9-0.5,1.8-0.6,2.7c-0.2,2.5-0.3,4.9-0.5,7.4
	c-1.3,13.2-5.2,26-11.5,37.6c-5.5,10.2-13,18.8-20.8,27.3c-13.1,14.1-24.2,29.5-32.3,47.1c-3.1,6.6-5.3,13.7-6.5,20.9
	c-0.3,1.8-0.4,3.5,1.6,4.8c12.1,7.8,14,25.3,5,35.9c-0.8,0.6-0.9,1.8-0.3,2.6c0.1,0.1,0.2,0.2,0.3,0.3c8.9,10.4,7.1,27.8-4.5,35.6
	c-1.6,1-1.7,2-0.9,3.7c4.9,10.5,2.4,22.1-6.2,29.2c-4.7,3.8-10.5,6-16.5,6.1c-3.1,0.1-4.3,1.5-5.7,3.8c-9.2,15.2-22.5,23-40.5,21.7
	c-14.7-1.1-25.7-8.6-33.2-21.2c-1.6-2.6-2.8-5-6.4-4.3c-0.9,0-1.7-0.1-2.6-0.4c-17.1-2.2-26.9-19.2-19.8-34.8c0.9-2,0.8-3-1-4.2
	c-11.4-7.9-13-24.9-4.4-35.1c1.1-1.3,1-2.1,0-3.4c-8.6-10.4-6.9-27.4,4.8-35.2c2-1.4,2.6-2.9,2.1-5c-1-4.4-1.8-8.9-3.4-13.1
	C62,234,51.8,218.4,39.5,204.2c-5.9-6.8-12.2-13.3-17.7-20.4c-18.5-23.6-24.6-50.6-20.5-80c3-23.1,13.7-44.6,30.4-60.9
	C58.6,16.4,91.5,3,129,0.7C130.5,0.6,132,0.2,133.4,0z M135.8,264.6h26.5c4.2,0,4.3,0,4.9-4.1c2.3-16.1,8-31,16-45.2
	c9.4-16.6,21.6-31.1,34.7-44.9c15.4-16.3,22.7-35.6,20.6-58.2c-1.5-15.9-7.7-29.8-17.8-42c-8-9.5-17.9-16.5-28.7-22.2
	c-22.4-11.9-46.2-16.8-71.5-13.2c-17.3,2.5-33.9,8.7-48.6,18.1c-22.7,14.4-36,34.8-38.3,61.7c-1.3,14.8,2.3,28.7,9.9,41.6
	c5.2,8.9,12.4,16.1,19.4,23.6c13.3,14.1,24.3,30.2,32.4,47.8c5.2,11,8.5,22.7,9.8,34.7c0.2,1.8,1,2.2,2.6,2.2
	C117,264.6,126.4,264.6,135.8,264.6L135.8,264.6z"/>
<path class="st1" d="M135.8,264.6c-9.4,0-18.8,0-28.2,0c-1.7,0-2.4-0.4-2.6-2.2c-1.3-12.1-4.6-23.8-9.8-34.7
	c-8.1-17.6-19.1-33.8-32.4-47.8c-7-7.4-14.2-14.7-19.4-23.6c-7.6-12.9-11.2-26.8-9.9-41.6C35.8,87.8,49.1,67.4,71.8,53
	c14.7-9.5,31.3-15.6,48.6-18.1c25.3-3.6,49.1,1.3,71.5,13.2c10.8,5.7,20.8,12.7,28.8,22.2c10.1,12.2,16.3,26.1,17.8,42
	c2.1,22.6-5.1,41.9-20.6,58.2c-13.1,13.8-25.3,28.2-34.7,44.9c-8,14.1-13.7,29.1-16,45.2c-0.6,4.1-0.6,4.1-4.9,4.1L135.8,264.6z
	 M138.6,77.2c-1,0-1.9,0-2.9,0c-3.6,0-6.6,2.6-7.2,6.1c-1.1,5.8,2.4,10.1,8.3,10.2c10.6,0.1,21.1,2.9,30.4,8.1
	c7.3,3.9,11.9,9.6,12,18.3c0,4.6,3.6,7.3,8.6,7.2c4.5-0.1,7.5-3.1,7.5-7.6c0.1-10.6-4.6-18.9-12.2-25.9
	C170.4,82,155.1,78.1,138.6,77.2L138.6,77.2z"/>
<path class="st0" d="M138.6,77.2c16.5,0.9,31.9,4.8,44.5,16.3c7.7,7,12.4,15.3,12.2,25.9c0,4.4-3.1,7.4-7.5,7.6
	c-5.1,0.2-8.6-2.5-8.6-7.2c-0.1-8.8-4.7-14.4-12-18.3c-9.3-5.2-19.7-7.9-30.4-8.1c-5.9,0-9.4-4.3-8.3-10.2c0.6-3.5,3.7-6.1,7.2-6.1
	C136.6,77.2,137.6,77.2,138.6,77.2z"/>
</svg>
