<svg id="Layer_1" data-name="Layer 1" xmlns="http://www.w3.org/2000/svg" viewBox="0 0 53.44 53.44"><defs><style>.cls-1{fill:#00589b;}</style></defs><title>Success</title><path class="cls-1" d="M29,1.67c-14.33-.32-27,12.39-26.71,26.72C1.94,42.71,14.65,55.42,29,55.1c14.33.32,27-12.39,26.71-26.71C56,14.06,43.31,1.35,29,1.67Zm0,5.17A21.75,21.75,0,0,1,50.52,28.39,21.74,21.74,0,0,1,29,49.93,21.74,21.74,0,0,1,7.44,28.39,21.75,21.75,0,0,1,29,6.84ZM43,21.93l-2.36-2.37a1.35,1.35,0,0,0-1.84-.11L25.89,32.23l-5.15-5.37a1.46,1.46,0,0,0-1.83,0l-2.48,2.48a1.25,1.25,0,0,0,0,1.83l8.6,8.6a1.23,1.23,0,0,0,1.83,0L43,23.76a1.23,1.23,0,0,0,0-1.83Z" transform="translate(-2.26 -1.67)"/></svg>