<?xml version="1.0" encoding="utf-8"?>
<!-- Generator: Adobe Illustrator 22.1.0, SVG Export Plug-In . SVG Version: 6.00 Build 0)  -->
<svg version="1.1" id="Layer_1" xmlns="http://www.w3.org/2000/svg" xmlns:xlink="http://www.w3.org/1999/xlink" x="0px" y="0px"
	 viewBox="0 0 339.2 395.8" style="enable-background:new 0 0 339.2 395.8;" xml:space="preserve">
<style type="text/css">
	.st0{fill:#787878;}
</style>
<title>Summary</title>
<path class="st0" d="M319.2,395.8H20.3c-0.5-0.2-1.1-0.4-1.6-0.5c-9-1.2-16.3-8-17.9-17c-0.1-0.9-0.4-1.8-0.6-2.6V20
	c0.3-1.1,0.5-2.1,0.8-3.2C3.1,6.5,11.5,0,22.5,0c63.6,0,127.2,0,190.8,0c2.8,0,5.7,0.1,8.5,0.3C235,1.7,246.7,6.6,256.2,16
	c22.3,22.2,44.5,44.5,66.8,66.8c10.5,10.3,16.3,24.5,16.2,39.2c0.2,83,0.2,166,0.1,249c0,1.9-0.1,3.8-0.3,5.7
	c-0.8,8.8-7.2,16.1-15.9,18.1L319.2,395.8z M27.9,197.8c0,55.8,0,111.5,0,167.3c0,2.8,0,2.8,2.7,2.8h278.2c2.6,0,2.6,0,2.6-2.7
	V143.7c0-2.7,0-2.7-2.8-2.7c-29.6,0-59.1,0-88.7,0c-1.8,0-3.7-0.2-5.5-0.6c-9.6-2.2-16.4-10.9-16.3-20.7c0-29.5,0-59,0-88.5
	c0.1-0.7,0.1-1.3-0.1-2c-0.3-0.6-0.8-1.1-1.4-1.4c-0.7-0.1-1.3-0.2-2-0.1H31.4c-0.6,0-1.2,0-1.8,0c-1.3-0.1-1.8,0.5-1.7,1.8
	c0,0.7,0,1.5,0,2.2V197.8z M309.4,113.3c0-0.5-0.1-1-0.2-1.4c-1.1-3.4-3-6.5-5.4-9.1C291,90,278.2,77.2,265.5,64.4L236.1,35
	c-2.7-2.7-6.1-4.1-10.1-5.5v81.2c0,2.6,0,2.6,2.6,2.6C228.6,113.3,309.4,113.3,309.4,113.3z"/>
<path class="st0" d="M169.6,197.6c-25.3,0-50.6,0-75.8,0c-1.3,0-2.6-0.1-3.9-0.4c-2.6-0.5-4.5-2.9-4.5-5.5c-0.1-5.3-0.1-10.6,0-15.8
	c0.1-3.2,2.6-5.8,5.8-5.9c0.5,0,0.9,0,1.4,0h154.3c0.7,0,1.4,0,2.2,0.1c3,0.5,5.2,3.1,5.1,6.1c0.1,4.8,0.1,9.5,0,14.3
	c0,4.6-2.3,6.9-6.9,7.2c-0.6,0-1.2,0-1.8,0L169.6,197.6z"/>
<path class="st0" d="M169.7,283.1h75.4c0.9,0,1.9,0,2.8,0c3.3-0.1,6.1,2.5,6.2,5.8c0,0.1,0,0.2,0,0.3c0.1,5.1,0.1,10.2,0,15.3
	c0,3.3-2.6,6-5.9,6.1c-0.1,0-0.2,0-0.3,0c-1,0-2,0-3,0H94.5c-1.1,0-2.2,0-3.4,0c-3.2-0.1-5.7-2.7-5.8-5.9c-0.1-5.1-0.1-10.2,0-15.3
	c0-3.8,2.5-6.3,6.4-6.3c13.1,0,26.1,0,39.2,0H169.7z"/>
<path class="st0" d="M169.7,254H93.5c-1.3,0.1-2.5,0-3.7-0.3c-2.6-0.7-4.4-3-4.4-5.7c-0.1-5.1-0.1-10.3,0-15.4
	c-0.1-3.3,2.6-6,5.9-6.1c0.1,0,0.2,0,0.3,0c0.7,0,1.3,0,2,0H246c1.3,0,2.6,0.1,3.9,0.4c2.5,0.6,4.2,2.8,4.2,5.4
	c0.1,5.3,0.1,10.7,0,16c-0.1,3.1-2.5,5.5-5.6,5.6c-1.1,0.1-2.1,0.1-3.2,0.1H169.7z"/>
</svg>
