<?xml version="1.0" encoding="utf-8"?>
<!-- Generator: Adobe Illustrator 22.1.0, SVG Export Plug-In . SVG Version: 6.00 Build 0)  -->
<svg version="1.1" id="Layer_1" xmlns="http://www.w3.org/2000/svg" xmlns:xlink="http://www.w3.org/1999/xlink" x="0px" y="0px"
	 viewBox="0 0 438 401.2" style="enable-background:new 0 0 438 401.2;" xml:space="preserve">
<style type="text/css">
	.st0{fill:#787878;}
</style>
<title>Transmission</title>
<path class="st0" d="M438,333.9c-5.1,2.9-10.8,3.4-16.5,4.3s-11.1,1.4-16.6,2.1c-0.8,0.3-1.5,0.8-1.9,1.5c-1.8,3-3.4,6-5.3,9
	c-0.8,1-0.9,2.4-0.3,3.6c3.1,7.5,6.4,15,9.2,22.7c2.7,7.3,2.5,7.4-4.2,11.2c-6.9,3.9-13.7,7.9-20.5,11.8c-2.8,1.6-3.2,1.7-5.2-0.7
	c-6.1-7.3-12.1-14.7-18-22.2c-0.7-1.2-2.1-1.9-3.5-1.8c-3.4,0.1-6.8,0.1-10.2,0c-1.2-0.1-2.4,0.5-3,1.5
	c-5.8,7.3-11.6,14.6-17.6,21.8c-2.7,3.2-2.9,3-6.5,1c-7.9-4.5-15.8-9.1-23.8-13.6c-1.5-0.9-2.3-1.8-1.7-3.6c2.1-6,4.1-12.1,6.3-18.1
	c1.3-3.4,2.9-6.8,4.4-10.1c0.5-1,0.4-2.3-0.2-3.2c-1.9-3-3.5-6.1-5.4-9.1c-0.5-0.8-1.3-1.3-2.3-1.6c-9-1.4-18-2.8-27-4.1
	c-0.3,0-0.5-0.1-0.8-0.2c-4.4-1.3-4.5-1.4-4.5-5.9c0-8.8,0.1-17.6-0.1-26.4c0-2.3,0.8-3.5,2.9-4c4.7-1,9.4-2.1,14.2-2.9
	c5-0.8,10-1.1,15-1.8c1-0.2,1.9-0.8,2.5-1.6c2-3.2,3.9-6.4,5.6-9.7c0.3-0.8,0.3-1.8,0-2.6c-2.9-7.3-6-14.5-8.9-21.8
	c-0.9-2.4-1.5-4.8-1.9-7.3c-0.1-0.9,0.3-1.7,1-2.3c8.6-5,17.2-9.9,25.8-14.9c1.6-0.9,2.8-0.7,3.9,0.6c5.6,6.7,11.4,13.2,16.7,20.1
	c2.4,3.1,4.4,5,8.6,4.2c2.3-0.5,4.9,0.3,7.3,0.1c1-0.1,1.9-0.6,2.6-1.4c5.5-6.7,10.8-13.7,16.5-20.3c4.6-5.5,3.8-4.8,9.3-1.7
	c7.6,4.2,15,8.6,22.5,12.9c1.5,0.7,2.1,2.5,1.4,4l0,0c-2.1,6.1-4.3,12.2-6.5,18.3c-1.2,3.3-2.7,6.4-4.2,9.5c-0.5,1-0.4,2.3,0.3,3.2
	c1.8,2.8,3.5,5.7,5,8.7c0.7,1.4,2,2.2,3.5,2.3c8.5,1.2,17,2.3,25.4,3.7c2.2,0.4,4.2,1.7,6.3,2.6L438,333.9z M350.2,347.1
	c16.3,0.1,29.6-13,29.7-29.3c0-0.1,0-0.2,0-0.3c-0.1-16.3-13.4-29.5-29.7-29.6c-16.6,0-29.5,14.5-29.5,29.5
	C320.9,334.2,333.6,347.1,350.2,347.1z"/>
<path class="st0" d="M438,100.2c-5.1,2.9-10.8,3.4-16.5,4.3s-11.1,1.3-16.6,2.1c-0.8,0.3-1.5,0.8-1.9,1.5c-1.8,3-3.4,6-5.3,9
	c-0.8,1-0.9,2.4-0.3,3.6c3.1,7.5,6.4,15,9.2,22.7c2.7,7.3,2.5,7.3-4.2,11.2c-6.9,3.9-13.7,7.9-20.6,11.8c-2.8,1.6-3.1,1.8-5.2-0.7
	c-6.1-7.3-12.1-14.7-18-22.2c-0.8-1.2-2.1-1.9-3.5-1.8c-3.4,0.1-6.8,0.1-10.2,0c-1.2-0.1-2.4,0.5-3,1.6
	c-5.7,7.2-11.4,14.3-17.2,21.3c-0.6,0.9-1.5,1.6-2.4,2.2c-0.8,0.4-1.7,0.5-2.5,0.3c-8.8-5-17.6-10-26.4-15.2
	c-0.8-0.6-1.2-1.6-1.1-2.6c1.9-6,3.9-12,6-18c1.3-3.6,3-7,4.6-10.5c0.7-1.2,0.6-2.7-0.3-3.8c-1.9-2.8-3.5-5.8-5.1-8.8
	c-0.5-1-1.4-1.6-2.5-1.7c-8.9-1.3-17.9-2.6-26.8-4c-0.2,0-0.4-0.1-0.6-0.1c-4.6-1.3-4.8-1.4-4.8-6.3c0-8.7,0.1-17.5-0.1-26.2
	c0-2.2,0.8-3.4,2.8-3.8c4.7-1,9.4-2.1,14.2-2.9c5-0.8,10-1.2,15-1.7c1.3-0.1,2.4-0.9,2.9-2.1c1.6-3,3.3-6,5.1-8.8
	c0.7-0.9,0.8-2.2,0.2-3.2c-3-7.2-6-14.4-8.9-21.7c-0.8-2.3-1.4-4.7-1.9-7.1c-0.4-1.3,0.2-2,1.3-2.6c8.7-4.9,17.4-9.9,26.1-14.9
	c0.4-0.3,0.8-0.6,1.2-1h0.4c1.5,1.5,3.2,3,4.6,4.6c5.5,6.7,10.9,13.4,16.3,20.2c0.7,1.1,2,1.6,3.3,1.4c3-0.4,6.1-0.4,9.2-0.1
	c2.1,0.3,3.2-0.4,4.4-1.9c5.8-7.3,11.7-14.5,17.7-21.7c2.1-2.6,2.6-2.5,5.5-0.8c7.2,4.1,14.4,8.2,21.6,12.4c5.3,3,5.5,3.1,3.3,9
	c-3,8.2-6.4,16.2-9.7,24.3c-0.6,1.1-0.5,2.4,0.2,3.4c1.8,2.8,3.5,5.7,5,8.7c0.5,1.3,1.7,2.1,3.1,2.2c6.7,0.8,13.4,1.5,20,2.5
	c4.2,0.7,8.5,1.1,12.1,3.8v32.1H438z M350.3,113.5c16.3,0.1,29.6-13.1,29.6-29.3c0-0.1,0-0.1,0-0.2c-0.1-16.3-13.3-29.4-29.6-29.6
	c-16.9,0-29.7,14.6-29.6,29.6C320.9,100.5,333.7,113.5,350.3,113.5L350.3,113.5z"/>
<path class="st0" d="M226.6,320.7c-1.5-0.6-3-1.4-4.4-2.4c-7.8-6-15.6-12.1-23.3-18.3c-1.2-1.1-3-1.3-4.4-0.5
	c-4.5,2-9.2,3.8-13.8,5.6c-1.1,0.2-1.8,1.1-1.9,2.2c-1.4,10.3-2.9,20.6-4.4,30.9c-0.2,1-0.4,2-0.7,3c-1.2,3.8-3.1,5.2-7,5.2h-41.3
	c-4.2,0-6.5-1.8-7.2-6c-1.4-8.6-2.6-17.2-3.9-25.8c-0.2-1.2-0.4-2.4-0.5-3.6c0-3.8-1.7-5.7-5.5-6.7s-7.3-3-10.9-4.6
	c-1.1-0.7-2.5-0.6-3.5,0.3c-8.4,6.4-16.8,12.7-25.3,19.1c-3,2.3-6.5,2.3-9.3-0.3c-10.1-9.3-20.2-18.6-28.8-29.3
	c-5-6.2-5-7.3-0.2-13.6c5.6-7.3,11.3-14.7,17-22c0.8-0.9,0.9-2.3,0.2-3.3c-2.3-5.2-4.5-10.4-6.7-15.6c-0.4-1.2-1.5-1.9-2.7-2
	c-10.8-1.7-21.6-3.4-32.4-5.1c-3.8-0.6-5.7-3.1-5.7-7.3c0-8.4,0-16.8,0-25.2c0-4.9,0-9.8,0-14.7s2.3-7.5,7.2-8.2
	c10.7-1.6,21.3-3.3,32-5c0.8-0.2,1.5-0.8,1.8-1.5c2.2-4.9,4.2-9.9,6.3-14.8c0.5-1,0.4-2.3-0.5-3.2c-6.2-7.9-12.4-15.8-18.6-23.7
	c-3.1-3.9-3.2-6.8,0-10.6c8.9-11.1,18.8-21,29.8-29.8c5.3-4.2,7.4-4,12.8,0.3c7.5,6,15.1,11.8,22.7,17.8c0.9,0.8,2.1,0.9,3.1,0.3
	c4.8-2.1,9.7-4.1,14.5-6c1.1-0.2,1.8-1.1,1.9-2.2c1.3-9.6,2.6-19.1,4-28.7c0.3-1.8,0.7-3.6,1.3-5.3c0.7-3.1,3.5-5.2,6.7-5
	c13.9,0,27.8,0,41.7,0c3.7,0,6.3,2.1,6.9,5.7c1.4,8.7,2.7,17.5,4,26.2c0.4,2.4,0.6,4.9,1.2,7.2c0.3,0.8,0.9,1.5,1.7,1.9
	c4.7,2,9.4,3.8,14.1,5.9c1.1,0.6,2.6,0.5,3.5-0.4c8.3-6.3,16.6-12.6,25-18.9c3.3-2.5,6.4-2.7,9.4,0.1c10.2,9.5,20.6,18.9,29.3,29.9
	c4.5,5.7,4.4,7,0,12.6c-5.6,7.2-11.1,14.5-16.7,21.7c-1.1,1.2-1.3,3-0.4,4.4c2.2,5,4.3,10,6.3,15.1c0.3,1,1.2,1.8,2.3,1.9
	c8.7,1.3,17.5,2.6,26.2,4c2.1,0.3,4.2,0.5,6.3,0.9c3.6,0.5,6.1,3.6,6,7.2c0.1,13.7,0.1,27.4,0,41.1c0,3.8-2.9,7.1-6.7,7.4
	c-10.7,1.4-21.4,3.2-32.1,4.9c-1.1,0.1-2.1,0.9-2.5,2c-1.8,4.6-3.7,9.2-5.8,13.7c-0.8,1.3-0.7,3.1,0.4,4.3
	c6.1,7.7,12.1,15.4,18.2,23.1c1.8,2.2,3.2,4.5,2.2,7.4c-0.6,1.5-1.4,2.8-2.5,3.9c-8.7,10.4-18.3,20.1-28.6,28.8
	C232.4,318.9,230.3,320.5,226.6,320.7z M204.6,200.9c0.8-32.6-27.5-58.1-56.8-59c-33.1-1-60.7,26.9-60.8,58.5
	c-0.1,31.4,25.9,59.2,58.9,59.2S205.3,231.8,204.6,200.9z"/>
</svg>
