<svg id="Layer_1" data-name="Layer 1" xmlns="http://www.w3.org/2000/svg" viewBox="0 0 66.41 45.17"><defs><style>.cls-1,.cls-2{fill:none;}.cls-1,.cls-10,.cls-2,.cls-3,.cls-4,.cls-8,.cls-9{stroke:#858082;stroke-linecap:round;stroke-linejoin:round;}.cls-1,.cls-10,.cls-3{stroke-width:0.5px;}.cls-3{fill:#fff;}.cls-4{fill:#eaeaea;}.cls-5{fill:#9e9d9e;}.cls-6{fill:#848484;}.cls-10,.cls-7{fill:#c2c1c0;}.cls-8{fill:#f9f9fa;}.cls-9{fill:#b3b3b3;}.cls-11{fill:#bfbfbf;}</style></defs><title>Servo_Analysis</title><path class="cls-1" d="M66,15.54a1.2,1.2,0,1,0-.85.35,1.15,1.15,0,0,0,.85-.35Zm2.74-1.35v1a.18.18,0,0,1-.13.17l-.86.13a3.51,3.51,0,0,1-.18.42c.11.15.28.37.5.64a.17.17,0,0,1,0,.22,4.46,4.46,0,0,1-.46.5c-.22.22-.37.33-.44.33a.22.22,0,0,1-.12,0l-.64-.5a2.81,2.81,0,0,1-.42.18,7.47,7.47,0,0,1-.14.87.16.16,0,0,1-.17.13h-1a.16.16,0,0,1-.17-.14l-.13-.86a2.91,2.91,0,0,1-.42-.17l-.66.5a.17.17,0,0,1-.12,0A.17.17,0,0,1,63,17.6a6.16,6.16,0,0,1-.77-.78.17.17,0,0,1,0-.11.19.19,0,0,1,0-.11l.24-.31.25-.33a2.15,2.15,0,0,1-.19-.46l-.85-.13a.17.17,0,0,1-.14-.17v-1a.18.18,0,0,1,.13-.17l.87-.13a2.11,2.11,0,0,1,.18-.43c-.13-.18-.29-.39-.5-.64a.17.17,0,0,1,0-.11.2.2,0,0,1,0-.11,4.31,4.31,0,0,1,.46-.5c.23-.22.37-.34.44-.34a.19.19,0,0,1,.12,0l.64.5a2.81,2.81,0,0,1,.42-.18,7.52,7.52,0,0,1,.14-.87.16.16,0,0,1,.17-.13h1a.16.16,0,0,1,.17.14l.13.86a2.91,2.91,0,0,1,.42.17l.66-.5a.15.15,0,0,1,.11,0,.17.17,0,0,1,.12,0,6.29,6.29,0,0,1,.77.79.14.14,0,0,1,0,.1.19.19,0,0,1,0,.11l-.24.31-.25.33a2.88,2.88,0,0,1,.19.46l.85.13A.17.17,0,0,1,68.71,14.19Z" transform="translate(-8.28 -6.7)"/><line class="cls-1" x1="13.39" y1="39.05" x2="14.14" y2="39.05"/><line class="cls-1" x1="15.62" y1="39.03" x2="16.83" y2="39.03"/><line class="cls-1" x1="18.56" y1="39" x2="40.12" y2="39"/><line class="cls-1" x1="41.41" y1="38.98" x2="42.76" y2="38.98"/><line class="cls-1" x1="44.13" y1="39.05" x2="45.71" y2="39.05"/><rect class="cls-2" x="10.3" y="6.47" width="36.91" height="27.22" rx="2.16" ry="2.16"/><rect class="cls-2" x="25.52" y="33.75" width="6.5" height="3"/><polygon class="cls-2" points="21.65 38.49 22.81 36.74 34.91 36.74 36.48 38.47 21.65 38.49"/><rect class="cls-1" x="12.42" y="8.77" width="32.53" height="19.67" rx="0.83" ry="0.83"/><circle class="cls-3" cx="28.75" cy="31.02" r="0.92"/><path class="cls-2" d="M24.21,7.27h0a3.26,3.26,0,0,0-4,3.32" transform="translate(-8.28 -6.7)"/><path class="cls-4" d="M26,34.8H48.24V10a3.13,3.13,0,0,0-2.17-2.69l-21.82,0A4.78,4.78,0,0,1,26,10.72Z" transform="translate(-8.28 -6.7)"/><path class="cls-5" d="M32.61,17a3.21,3.21,0,0,1,2.17-3.49c-.37-.61-.74-1.22-1.11-1.83a5.29,5.29,0,0,0-.93,9.21c.22-.26.44-.51.65-.78s.46-.58.7-.86A3.19,3.19,0,0,1,32.61,17Z" transform="translate(-8.28 -6.7)"/><path class="cls-6" d="M40.47,13.86a3.23,3.23,0,0,1-.3,4.55l-.09.07a14.17,14.17,0,0,0,1.21,1.17c.12.09.24.17.37.25a5.4,5.4,0,0,0,.47-.48l.08-.1a5.29,5.29,0,0,0,.57-.88l.11-.23L43,18q.1-.24.17-.49a5.33,5.33,0,0,0-7.61-6.2l1,1.85A3.22,3.22,0,0,1,40.47,13.86Z" transform="translate(-8.28 -6.7)"/><path class="cls-7" d="M39.11,19.85a2.64,2.64,0,0,1-.92.8,2.59,2.59,0,0,1-2.79-.33,12.46,12.46,0,0,1-1.16,1.54l.29.23a4.3,4.3,0,0,0,4.41.36h0a4.43,4.43,0,0,0,1.49-1.21A17.94,17.94,0,0,0,39.11,19.85Z" transform="translate(-8.28 -6.7)"/><path class="cls-8" d="M58.2,36.41,61,39.57c1.53-.6,2.07-1.27,2.23-1.92L60.35,34.5Z" transform="translate(-8.28 -6.7)"/><path class="cls-8" d="M60.89,41.68,69.42,51a1.33,1.33,0,0,0,1.83.08l2.6-2.45c.52-.68.39-.92,0-1.54L65.27,37.5a2.26,2.26,0,0,0-2.08-.08l-2.13,2.06A2.26,2.26,0,0,0,60.89,41.68Z" transform="translate(-8.28 -6.7)"/><line class="cls-2" x1="58.41" y1="35.09" x2="63.68" y2="40.99"/><line class="cls-2" x1="56.23" y1="32.91" x2="57.01" y2="33.73"/><path class="cls-9" d="M56.58,22.84a6.75,6.75,0,0,0-6.74,0,6.82,6.82,0,0,0-2.44,2.44,6.75,6.75,0,0,0,0,6.74,6.82,6.82,0,0,0,2.44,2.44,6.75,6.75,0,0,0,6.74,0A6.82,6.82,0,0,0,59,32a6.75,6.75,0,0,0,0-6.74,6.82,6.82,0,0,0-2.44-2.44Zm4.84,1.06a9.54,9.54,0,0,1,0,9.52A9.53,9.53,0,0,1,58,36.86a9.54,9.54,0,0,1-9.52,0A9.59,9.59,0,0,1,45,33.42a9.54,9.54,0,0,1,0-9.52,9.53,9.53,0,0,1,3.44-3.46,9.54,9.54,0,0,1,9.52,0A9.47,9.47,0,0,1,61.42,23.9Z" transform="translate(-8.28 -6.7)"/><line class="cls-1" x1="1.67" y1="21.24" x2="6.01" y2="28.08"/><line class="cls-1" x1="6.01" y1="28.12" x2="16.97" y2="18.35"/><line class="cls-1" x1="17.04" y1="18.4" x2="25.57" y2="23.09"/><line class="cls-1" x1="25.62" y1="23.08" x2="33.1" y2="18.24"/><circle class="cls-10" cx="25.61" cy="22.97" r="1.78"/><circle class="cls-10" cx="1.75" cy="21.09" r="1.5"/><circle class="cls-3" cx="17.13" cy="18.36" r="3.14"/><circle class="cls-11" cx="17.13" cy="18.36" r="1.79"/><circle class="cls-3" cx="6.1" cy="28.05" r="2.46"/><circle class="cls-11" cx="6.1" cy="28.05" r="1.4"/><circle class="cls-3" cx="33.16" cy="18.09" r="1.5"/><line class="cls-2" x1="11.85" y1="3.88" x2="17.59" y2="3.88"/></svg>