<svg id="Layer_1" data-name="Layer 1" xmlns="http://www.w3.org/2000/svg" viewBox="0 0 48.85 44.73"><defs><style>.cls-1,.cls-2,.cls-4{fill:none;stroke:#858082;}.cls-1,.cls-4{stroke-miterlimit:10;}.cls-2,.cls-4{stroke-linecap:round;}.cls-2{stroke-linejoin:round;}.cls-3{fill:#858082;}</style></defs><title>Servo_Training</title><circle class="cls-1" cx="7.4" cy="12.14" r="2.88"/><path class="cls-1" d="M12.74,23,15,26.3a.57.57,0,0,0,.93,0l2.41-3.26,4,0,4.81-4.94,2.44,2.5-6.69,6.69H20l-.59.59V36l1.46,15.63-3.53,0L15.59,39.37c0-.65-.29-1.83-.42,0l-.73,12.16-4,0,1.3-15.83v.9l-2.46,0a5,5,0,0,1-.53,0l0-10.83A6.2,6.2,0,0,1,12.74,23Z" transform="translate(-8.21 -7.38)"/><line class="cls-2" x1="25.18" y1="6.97" x2="20.21" y2="11.74"/><line class="cls-2" x1="11.38" y1="0.5" x2="47.94" y2="0.5"/><line class="cls-2" x1="16.64" y1="19.46" x2="48.35" y2="19.46"/><line class="cls-2" x1="13.26" y1="1.31" x2="13.26" y2="14.33"/><line class="cls-2" x1="46.26" y1="1.31" x2="46.26" y2="19.33"/><rect class="cls-2" x="38.98" y="3.03" width="4.35" height="4.09"/><rect class="cls-2" x="38.98" y="12.03" width="4.35" height="4.09"/><line class="cls-1" x1="17.03" y1="3.55" x2="36.25" y2="3.55"/><line class="cls-1" x1="22.03" y1="15.55" x2="36.25" y2="15.55"/><line class="cls-1" x1="26.03" y1="12.55" x2="36.25" y2="12.55"/><rect class="cls-3" x="34.84" y="6.33" width="1.41" height="1.41"/><rect class="cls-3" x="32.32" y="6.33" width="1.41" height="1.41"/><rect class="cls-3" x="29.8" y="6.33" width="1.41" height="1.41"/><rect class="cls-3" x="27.28" y="6.33" width="1.41" height="1.41"/><line class="cls-4" x1="29.58" y1="20.26" x2="22.4" y2="30.62"/><line class="cls-4" x1="29.77" y1="20.14" x2="36.97" y2="30.49"/><line class="cls-4" x1="20.78" y1="30.75" x2="24.61" y2="30.75"/><line class="cls-4" x1="27.78" y1="30.75" x2="31.61" y2="30.75"/><line class="cls-4" x1="35.17" y1="30.8" x2="39" y2="30.8"/><line class="cls-4" x1="29.77" y1="30.68" x2="29.77" y2="20.35"/><path class="cls-2" d="M35,45.84l-2-1.33a2.18,2.18,0,0,1-3,.16l-3.4,2.26,0,3.12h6V47.39Z" transform="translate(-8.21 -7.38)"/><circle class="cls-2" cx="23.21" cy="35.62" r="2.13"/><path class="cls-2" d="M50.7,47l-3.58-2.4a2.18,2.18,0,0,1-3,.16l-1.78,1.18,2.17,1.45v2.75h6.17Z" transform="translate(-8.21 -7.38)"/><circle class="cls-2" cx="37.34" cy="35.68" r="2.13"/><circle class="cls-2" cx="30.17" cy="35.32" r="2.55"/><path class="cls-2" d="M40.72,50.11" transform="translate(-8.21 -7.38)"/><polyline class="cls-2" points="24.41 42.69 24.41 43.73 24.41 43.74 36.3 43.75 36.3 42.74"/><path class="cls-2" d="M42.36,45.92l-2.1-1.41a2.6,2.6,0,0,1-3.56.19L35,45.84" transform="translate(-8.21 -7.38)"/></svg>