<svg xmlns="http://www.w3.org/2000/svg" xmlns:xlink="http://www.w3.org/1999/xlink" viewBox="0 0 286.63 223.9"><defs><style>.cls-1{fill:#c3c3c3;}.cls-2{fill:#9c9c9c;}.cls-3{fill:#e3e3e3;}.cls-4{fill:#999bc4;}.cls-5{fill:#a4a6cd;}.cls-6{fill:#7e80af;}.cls-7{fill:#dcddec;}.cls-8{fill:#cdcee2;}.cls-9{fill:#e6e7f2;}.cls-10{fill:#989ac2;}.cls-11{fill:#a9abd1;}.cls-12{fill:#a2a4cb;}.cls-13{fill:#989ac3;}.cls-14{fill:#a6a8ce;}.cls-15{fill:#a0a2ca;}.cls-16{fill:#9c9ec6;}.cls-17{fill:#9a9cc5;}.cls-18{fill:#9698c2;}.cls-19{fill:#a6a9ce;}.cls-20{fill:#7577a7;}.cls-21{fill:#a8aacf;}.cls-22{fill:#9597c1;}.cls-23{fill:#a5a6cd;}.cls-24{fill:#9799c3;}.cls-25{fill:#6b6d9c;}.cls-26{fill:#9495c0;}.cls-27{fill:#8d8fbc;}.cls-28{fill:#8082b0;}.cls-29{fill:#a9abd0;}.cls-30{fill:#7c7ead;}.cls-31{fill:#7374a5;}.cls-32{fill:#9ea0c8;}.cls-33{fill:#595a87;}.cls-34{fill:#a4a5cc;}.cls-35{fill:#9fa2c9;}.cls-36{fill:#7779a9;}.cls-37{fill:#a1a3ca;}.cls-38{fill:#5d5f8c;}.cls-39{fill:#a0a2c9;}.cls-40{fill:#8d8ebb;}.cls-41{fill:#6a6b9a;}.cls-42{fill:#52537c;}.cls-43{fill:#505279;}.cls-44{fill:#505178;}.cls-45{fill:#52537a;}.cls-46{fill:#5c5e89;}.cls-47{fill:#8688b6;}.cls-48{fill:#9a9cc4;}.cls-49{fill:#565880;}.cls-50{fill:#6d6e9b;}.cls-51{fill:#484a72;}.cls-52{fill:#5c5e8c;}.cls-53{fill:#8284b2;}.cls-54{fill:#7475a4;}.cls-55{fill:#6c6d9a;}.cls-56{fill:#9193be;}.cls-57{fill:#898bb5;}.cls-58{fill:#595a83;}.cls-59{fill:#55567d;}.cls-60{fill:#666796;}.cls-61{fill:#8b8db7;}.cls-62{fill:#525380;}.cls-63{fill:#4e4f7a;}.cls-64{fill:#aaacd1;}.cls-65{fill:#a7a9cf;}.cls-66{fill:#a7a8ce;}.cls-67{fill:#a3a5cc;}.cls-68{fill:#a2a4ca;}.cls-69{fill:#9ea0c7;}.cls-70{fill:#9799c2;}.cls-71{fill:#8688b4;}.cls-72{fill:#8c8eba;}.cls-73{fill:#5a5b85;}.cls-74{fill:#989ac4;}.cls-75{fill:#8183b2;}.cls-76{fill:#787aaa;}.cls-77{fill:#7c7fad;}.cls-78{fill:#54547e;}.cls-79{fill:#9394bf;}.cls-80{fill:#888ab7;}.cls-81{fill:#6b6c9b;}.cls-82{fill:#9798c2;}.cls-83{fill:#9d9fc7;}.cls-84{fill:#6d6e9d;}.cls-85{fill:#a8a9cf;}.cls-86{fill:#9899c3;}.cls-87{fill:#7b7ead;}.cls-88{fill:#666896;}.cls-89{fill:#9c9dc6;}.cls-90{fill:#aaabd1;}.cls-91{fill:#656695;}.cls-92{fill:#8e90bc;}.cls-93{fill:#9c9ec7;}.cls-94{fill:#a2a4cc;}.cls-95{fill:#a5a7cd;}.cls-96{fill:#9092bd;}.cls-97{fill:#6f70a0;}.cls-98{fill:#646593;}.cls-99{fill:#8587b4;}.cls-100{fill:#6f71a1;}.cls-101{fill:#9e9fc8;}.cls-102{fill:#53557f;}.cls-103{fill:#a7a8cf;}.cls-104{fill:#505179;}.cls-105{fill:#9294bf;}.cls-106{fill:#9395bf;}.cls-107{fill:#686998;}.cls-108{fill:#a5a7cf;}.cls-109{fill:#7c7eae;}.cls-110{fill:#676897;}.cls-111{fill:#a0a1c9;}.cls-112{fill:#8083b2;}.cls-113{fill:#646694;}.cls-114{fill:#50527a;}.cls-115{fill:#9a9bc5;}.cls-116{fill:#aaacd2;}.cls-117{fill:#666795;}.cls-118{fill:#6b6c9c;}.cls-119{fill:#676997;}.cls-120{fill:#7879a9;}.cls-121{fill:#9d9fc8;}.cls-122{fill:#dcddea;}.cls-123{fill:#7d7fae;}.cls-124{fill:#9b9dc6;}.cls-125{fill:#8f90bd;}.cls-126{fill:#6e709f;}.cls-127{fill:#d9d9e7;}.cls-128{fill:#5b5d87;}.cls-129{fill:#8c8dbb;}.cls-130{fill:#4e5077;}.cls-131{fill:#9092bc;}.cls-132{fill:#8789b6;}.cls-133{fill:#656795;}.cls-134{fill:#686999;}.cls-135{fill:#6e71a0;}.cls-136{fill:#8889b7;}.cls-137{fill:#6a6a9a;}.cls-138{fill:#676998;}.cls-139{fill:#8b8cb8;}.cls-140{fill:#7474a4;}.cls-141{fill:#8689b3;}.cls-142{fill:#8a8cb8;}.cls-143{fill:#c3c4da;}.cls-144{fill:#a9abd2;}.cls-145{fill:#8f92bd;}.cls-146{fill:#686997;}.cls-147{fill:#a0a2cb;}.cls-148{fill:#8c8eb5;}.cls-149{fill:#8c8ebb;}.cls-150{fill:#666897;}.cls-151{fill:#9fa1c8;}.cls-152{fill:#8e8fbc;}.cls-153{fill:#555680;}.cls-154{fill:#7f80ae;}.cls-155{fill:#dcdef6;}.cls-156{fill:#b1b2d7;}.cls-157{fill:#c3c4e5;}.cls-158{fill:#d1d2ef;}.cls-159{fill:#616290;}.cls-160{fill:#555782;}.cls-161{fill:#b2b4d8;}.cls-162{fill:#c2c4e5;}.cls-163{fill:#5d5e8c;}.cls-164{fill:url(#radial-gradient);}.cls-165{fill:#515477;}.cls-166{fill:#666667;}.cls-167,.cls-171,.cls-172,.cls-173{fill:none;}.cls-167,.cls-168,.cls-171,.cls-172,.cls-173{stroke:#686969;stroke-linecap:round;stroke-miterlimit:10;}.cls-167{stroke-width:2px;}.cls-168,.cls-170{fill:#fff;}.cls-168{stroke-dasharray:3 3;}.cls-169{font-size:16px;fill:#231f20;font-family:OpenSans, Open Sans;}.cls-172{stroke-dasharray:2.93 2.93;}.cls-173{stroke-dasharray:3.4 3.4;}</style><radialGradient id="radial-gradient" cx="177.65" cy="92.89" fx="197.3863455375041" r="42.59" gradientTransform="translate(256.35 308.4) rotate(-149.32) scale(1 1.56)" gradientUnits="userSpaceOnUse"><stop offset="0.21" stop-color="#636363" stop-opacity="0"/><stop offset="0.55" stop-color="#636363" stop-opacity="0.02"/><stop offset="0.68" stop-color="#626265" stop-opacity="0.07"/><stop offset="0.76" stop-color="#606067" stop-opacity="0.17"/><stop offset="0.83" stop-color="#5d5e6a" stop-opacity="0.31"/><stop offset="0.9" stop-color="#5a5b6e" stop-opacity="0.49"/><stop offset="0.95" stop-color="#555773" stop-opacity="0.71"/><stop offset="1" stop-color="#515378" stop-opacity="0.97"/><stop offset="1" stop-color="#505279"/></radialGradient></defs><title>transGraphic</title><g id="Rod_Backside" data-name="Rod Backside"><polygon class="cls-1" points="84.43 137.55 83.09 147.53 15.54 104.91 17.11 95.67 84.43 137.55"/><polygon class="cls-2" points="84.4 137.72 94.09 135.91 92.57 145.26 83.09 147.53 84.4 137.72"/><polygon class="cls-3" points="84.47 137.73 17.11 95.68 27.18 93.83 94.09 135.91 84.47 137.73"/></g><g id="_2_Gears" data-name="2 Gears"><path class="cls-4" d="M177.53,5.65l1.58-3.53h3.75l4.49,3,12.71,6.77a3.4,3.4,0,0,0-4.27,2.49c-.76,2.17-1.57,4.33-2.36,6.49l-3.88-1.54-2.16-5.93c-3.28-1.77-6.57-3.51-9.81-5.34-.38-.21-.48-.93-.71-1.42l0,0Z" transform="translate(-1.08 -2.12)"/><path class="cls-5" d="M200.06,11.92,187.35,5.15l3-3h.75l2.44,1.35c.6.76,1,1.78,1.83,2.24,4,2.39,8.16,4.65,12.25,7l-1.45,2.27c-1.1-.49-2.66-1.7-3.21-1.34-2.45,1.58-1.88-1.34-2.91-1.7Z" transform="translate(-1.08 -2.12)"/><path class="cls-6" d="M61.13,151.49l-7.26-3.88v-.75l.69-2.34v-.05l18.07,9.14c-.22,1.21-.44,2.43-.67,3.65Z" transform="translate(-1.08 -2.12)"/><path class="cls-7" d="M249.6,65.12l-.86-.06c0-1.2,0-2.4,0-3.6l.9-.09Z" transform="translate(-1.08 -2.12)"/><path class="cls-8" d="M248.89,74.84a1.7,1.7,0,0,1,.71,0v3.75l-.93-.14C248.74,77.27,248.82,76.05,248.89,74.84Z" transform="translate(-1.08 -2.12)"/><path class="cls-9" d="M91.37,180.6v-.76l3.71-.08,0,.84Z" transform="translate(-1.08 -2.12)"/><path class="cls-10" d="M54.56,144.52l-.69,2.34v-2.25A.84.84,0,0,1,54.56,144.52Z" transform="translate(-1.08 -2.12)"/><path class="cls-11" d="M122.81,37.37c1.63-4.15,2.11-4.34,5.7-2.24s4,1.88,5.65-2.29L150.52,42l1.63,2.13c-1.44.74-2,4.42-4.33,1.92-3-3.27-5.28-2.47-7.71.39Z" transform="translate(-1.08 -2.12)"/><path class="cls-12" d="M95.29,102.68l8-4.58.8,0h0l.77.72,16.41,8.32-7.44,4.4c-1.47-.59-3-1.11-4.4-1.81C104.71,107.44,100,105.05,95.29,102.68Z" transform="translate(-1.08 -2.12)"/><path class="cls-13" d="M107.93,72.57l3.59-5.13,12,6a18.31,18.31,0,0,0,3.75,2.29c2.91,1,2.18,2.48,1.24,4.49-1.65,3.55-4.75,1.51-7.15,2.11,0-.52.16-1.38-.08-1.52-3.84-2.23-7.74-4.35-11.6-6.57A10.13,10.13,0,0,1,107.93,72.57Z" transform="translate(-1.08 -2.12)"/><path class="cls-14" d="M132.78,26.22c1.2-2.76,2.85-4,5.68-1.8.67.53,1.59.72,2.3,1.2,2.26,1.5,3.18.73,3.14-1.77a19.36,19.36,0,0,0,3,2.62c4.45,2.46,9,4.77,13.48,7.14l1.6,1.52c-1.9,2.55-3.64,3.81-5.77,0C154.94,32.88,153,32,151.32,35a32.75,32.75,0,0,1-4.08-1.42C142.39,31.2,137.59,28.69,132.78,26.22Z" transform="translate(-1.08 -2.12)"/><path class="cls-15" d="M97.51,88.4c1.93-1,3.88-1.89,5.78-2.9,1-.55,2-1.23,2.94-1.85.22.57.27,1.46.67,1.66,5.57,2.83,11.18,5.56,16.78,8.31l-6.79,3-.79.63c-.23.09-.46.17-.7.24Z" transform="translate(-1.08 -2.12)"/><path class="cls-16" d="M58.94,133.48c0-1.31-.51-3,.13-3.82s2.49-1.33,3.82-1.37c1,0,2,.87,3,1.35l15.74,8.21c-3.3-1.31-4.27,2.53-6.74,3.05L61.58,134Z" transform="translate(-1.08 -2.12)"/><path class="cls-12" d="M98.85,113.06l3.64-2.88,10.58,5.23.83.67,6.7,3.79c-2.42,1.82-4.83,3.65-7.29,5.41-.09.06-.69-.57-1-.88.82-2.14,1.16-4-2.16-3.84-1.46-.84-3-1.6-4.38-2.55C103.38,116.42,101.13,114.71,98.85,113.06Z" transform="translate(-1.08 -2.12)"/><path class="cls-17" d="M106.92,63.65c-.52-4.46,1.76-5.72,7-3.89l-.14.16-.93.36,1,.34h0l11.25,6c.23.77,2.65.82.75,2.29l-1.53,3.59-15.68-8.17Z" transform="translate(-1.08 -2.12)"/><path class="cls-18" d="M165.62,10.38c.51-1.75,1-3.5,1.54-5.24l18.08,9.06q-.83,2.58-1.64,5.16l-6-2.25Z" transform="translate(-1.08 -2.12)"/><path class="cls-13" d="M78.64,116.12c.53-1.75,1.07-3.5,1.6-5.25L98,120.6c-.48,1.49-1,3-1.43,4.49Z" transform="translate(-1.08 -2.12)"/><path class="cls-19" d="M122.86,47.87c.82-1.54,1.63-3.09,2.44-4.63a3.05,3.05,0,0,1,.6.06l14.95,8.32c.43,1.27,3.73.84,2,3.36-1.23,1.8-2.45,3.53-4.87,1.35a7.85,7.85,0,0,0-2.36-1L123,48Z" transform="translate(-1.08 -2.12)"/><path class="cls-17" d="M116.29,58.41l1.11-1.6,1.74-.71h0l1.52.76h0l1.52.76h0l1.49.78h0l.91.7h.3l.29.07.9.69a1.22,1.22,0,0,1,.6.08l.88.68a1.52,1.52,0,0,1,.63.08l.78.69,0,0,1.52.77,0,0,1.52.78,0,0,1.53.77,0,0,1.53.76h0l.75.79-.1.77-.65.78-.18.74-.59.7h0l-.68.93-.83.5-.83-.64a2.17,2.17,0,0,1-.67-.09l-5.23-2.94-4.49-2.25-.76-.75-2.24-.75-.76-.75-3.74-.75h0a5.36,5.36,0,0,0-.05-.7l.14-.16L116,59.1c.11,0,.3-.08.31-.13A2.74,2.74,0,0,0,116.29,58.41Z" transform="translate(-1.08 -2.12)"/><path class="cls-20" d="M143.85,22.37l-.06-5.32,18.08,9.09c-.24,2.22-.49,4.45-.74,6.67-.51-.81-.82-2-1.55-2.38C154.38,27.65,149.1,25,143.85,22.37Z" transform="translate(-1.08 -2.12)"/><path class="cls-21" d="M81.62,137.85l-15.74-8.21c1.27-1.27,2.53-2.55,3.8-3.83l15.73,8.26c1.67,1,2.45,1.83,1,3.9C84.43,140.63,83.16,139.06,81.62,137.85Z" transform="translate(-1.08 -2.12)"/><path class="cls-22" d="M62.8,139.2c.05-1,.09-1.92.14-2.88l11.86,6.07.82.59.75.1a6.42,6.42,0,0,0,1.87,1.21c3.73.84,3.87,2.82,1.91,5.57-5.4-2.71-10.83-5.37-16.16-8.2C63.34,141.32,63.18,140,62.8,139.2Z" transform="translate(-1.08 -2.12)"/><path class="cls-23" d="M114.44,51a15.85,15.85,0,0,1,1-4.37c.26-.49,2-.22,3-.3l3.65,2.33h0c.69.47,1.37,1,2.07,1.43l9.18,6.06L131.83,59c-4.73-2.46-9.43-5-14.2-7.35A13.09,13.09,0,0,0,114.44,51Z" transform="translate(-1.08 -2.12)"/><path class="cls-24" d="M106.47,82.35c-1-1-1.78-2.24-2.94-2.85-3.2-1.7-3.58-3.67-1.09-6.25l18.24,9.15-1.63,3-.65.78h0l-4.59-2.3-6.69-2.28Z" transform="translate(-1.08 -2.12)"/><path class="cls-25" d="M132.78,26.22c4.81,2.47,9.61,5,14.46,7.39A32.75,32.75,0,0,0,151.32,35c0,1.79,0,3.57,0,5.36-2.82-1.53-5.57-3.19-8.46-4.55S137,33.42,134,32.23Z" transform="translate(-1.08 -2.12)"/><path class="cls-26" d="M106.47,82.35c.23-.25.46-.51.7-.76l6.69,2.28,4.59,2.3c1.14.91,2.18,2.39,3.45,2.61,3.76.65,3.37,2.43,1.78,4.84-5.6-2.75-11.21-5.48-16.78-8.31-.4-.2-.45-1.09-.67-1.66Z" transform="translate(-1.08 -2.12)"/><path class="cls-27" d="M97.51,88.4l17.89,9.1c0,.7-.05,1.41-.08,2.11-1.19.13-2.54.67-3.54.29-2-.79-3.88-2.16-5.9-3.06-.33-.15-1.18.84-1.79,1.29l-.8,0c.63-2.75-1.32-3.7-3.28-4.44C97.4,92.66,96.36,91.1,97.51,88.4Z" transform="translate(-1.08 -2.12)"/><path class="cls-5" d="M72.62,153.61l-18.07-9.14,5.32-2.88c.9.95,1.63,2.18,2.72,2.8,4.28,2.42,8.68,4.65,13,7Z" transform="translate(-1.08 -2.12)"/><path class="cls-28" d="M154.31,17.86q.39-3.36.8-6.74a22.68,22.68,0,0,0,2,1.52c5.07,3,10.16,6,15.25,9-.07,1.05-.13,2.1-.23,3.68-5.31-2.94-10.25-5.55-15.06-8.4-1.65-1-2.08-.73-2.06,1A5.93,5.93,0,0,0,154.31,17.86Z" transform="translate(-1.08 -2.12)"/><path class="cls-29" d="M98.85,113.06c2.28,1.65,4.53,3.36,6.87,5,1.39.95,2.92,1.71,4.38,2.55l-3,3.76-5.18-3.71-1.49-1.44L90.51,113c1.3-2.44,3-2.56,5.22-1.13A15.06,15.06,0,0,0,98.85,113.06Z" transform="translate(-1.08 -2.12)"/><path class="cls-14" d="M68.07,118.31c.9-2.59,2.57-2.5,4.63-1.4s3.9,2,5.85,2.94l11.34,6h-.77l-3,1.51Z" transform="translate(-1.08 -2.12)"/><path class="cls-23" d="M154.31,17.86a5.93,5.93,0,0,1,.72.1c2,1.2,4,2.31,5.85,3.64a29.54,29.54,0,0,1,3.22,3l-2.23,1.52-18.08-9.09c1.45-2.73,3.3-3.14,5.89-1.31A26.35,26.35,0,0,0,154.31,17.86Z" transform="translate(-1.08 -2.12)"/><path class="cls-30" d="M113.07,115.41l-10.58-5.23a35.35,35.35,0,0,0-4.56-2.38c-2.58-.93-3.32-2.61-2.64-5.12,4.72,2.37,9.42,4.76,14.15,7.08,1.42.7,2.93,1.22,4.4,1.81C113.58,112.85,113.32,114.13,113.07,115.41Z" transform="translate(-1.08 -2.12)"/><path class="cls-31" d="M89.89,125.88l-11.34-6,.09-3.73,18,9c0,1.27,0,2.53,0,3.79l-6.74-3Z" transform="translate(-1.08 -2.12)"/><path class="cls-32" d="M75.62,151.34c-4.35-2.3-8.75-4.53-13-7-1.09-.62-1.82-1.85-2.72-2.8l2.93-2.39c.38.84.54,2.12,1.19,2.46,5.33,2.83,10.76,5.49,16.16,8.2Z" transform="translate(-1.08 -2.12)"/><path class="cls-33" d="M125.9,43.3a3.05,3.05,0,0,0-.6-.06l-2.49-5.87,17.3,9.06v2.94c-2.66-1.28-5.29-2.64-8-3.82C130.09,44.68,128,44,125.9,43.3Z" transform="translate(-1.08 -2.12)"/><path class="cls-34" d="M155.76,9.47c1.53-.22,3.13-.82,4.58-.56,1.77.31,3.41,1.34,5.1,2.06,1.06.8,2.07,1.68,3.2,2.38,2.44,1.53,5,3,7.43,4.45l-2.18.85Z" transform="translate(-1.08 -2.12)"/><path class="cls-35" d="M120.68,82.4l-18.24-9.15,5.49-.68a10.13,10.13,0,0,0,1.75,1.66c3.86,2.22,7.76,4.34,11.6,6.57.24.14.06,1,.08,1.52A2.22,2.22,0,0,1,120.68,82.4Z" transform="translate(-1.08 -2.12)"/><path class="cls-36" d="M68.07,118.31l18.07,9.08c0,.24,0,.47,0,.71-.72,1-.93,2.17-2.87.94-4.54-2.87-9.4-5.22-14.17-7.72-.14-.07-.68.61-1,.94Z" transform="translate(-1.08 -2.12)"/><path class="cls-37" d="M185.24,14.2,167.16,5.14a25.63,25.63,0,0,1,5.3-.26C174,5.1,175.4,6,176.87,6.67c.23.49.33,1.21.71,1.42,3.24,1.83,6.53,3.57,9.81,5.34v0l-1.52.65A3.22,3.22,0,0,1,185.24,14.2Z" transform="translate(-1.08 -2.12)"/><path class="cls-38" d="M143.85,22.37c5.25,2.67,10.53,5.28,15.73,8.06.73.39,1,1.57,1.55,2.38,0,.25,0,.5,0,.74-.24,0-.49.05-.73.06-4.5-2.37-9-4.68-13.48-7.14a19.36,19.36,0,0,1-3-2.62C143.89,23.36,143.87,22.86,143.85,22.37Z" transform="translate(-1.08 -2.12)"/><path class="cls-39" d="M90.51,113l9.87,6.13L98,120.6l-17.79-9.73c1.65-.11,3.39-.6,4.93-.24C87,111.06,88.74,112.2,90.51,113Z" transform="translate(-1.08 -2.12)"/><path class="cls-40" d="M155.76,9.47l18.13,9.18-.83,2.22-.69.77h0c-5.09-3-10.18-6-15.25-9a22.68,22.68,0,0,1-2-1.52c0-.25,0-.5,0-.74l.66-.85Z" transform="translate(-1.08 -2.12)"/><path class="cls-41" d="M68,122.26c.35-.33.89-1,1-.94,4.77,2.5,9.63,4.85,14.17,7.72,1.94,1.23,2.15.05,2.87-.94,0,1.52,0,3,0,4.55l-16.54-8.29-1-.7Z" transform="translate(-1.08 -2.12)"/><path class="cls-42" d="M134,32.23c3,1.19,6,2.25,8.86,3.61s5.64,3,8.46,4.55v0L150.52,42l-16.36-9.15A1.08,1.08,0,0,1,134,32.23Z" transform="translate(-1.08 -2.12)"/><path class="cls-43" d="M114.44,51a13.09,13.09,0,0,1,3.19.66c4.77,2.38,9.47,4.89,14.2,7.35-.16,2.1-1.05,1.24-2.18.68-4-2-8.07-3.84-12.12-5.74l-.76.08Z" transform="translate(-1.08 -2.12)"/><path class="cls-44" d="M69.58,124.36l16.54,8.29c-.24.47-.47.95-.71,1.42l-15.73-8.26L69,124.35h.56Z" transform="translate(-1.08 -2.12)"/><path class="cls-45" d="M76.37,143.08l-.75-.1-.82-.59-11.86-6.07-2.33-1.43,1-.92,13.3,6.93C75.37,141.63,75.87,142.35,76.37,143.08Z" transform="translate(-1.08 -2.12)"/><path class="cls-46" d="M108.66,64.33l15.68,8.17-.82.93-12-6-4-3Z" transform="translate(-1.08 -2.12)"/><path class="cls-47" d="M176.07,17.8c-2.48-1.48-5-2.92-7.43-4.45-1.13-.7-2.14-1.58-3.2-2.38a1.69,1.69,0,0,1,.18-.59l12,6.73-.77.8Z" transform="translate(-1.08 -2.12)"/><path class="cls-48" d="M122.12,48.62l-3.65-2.33,3.65,1.58Z" transform="translate(-1.08 -2.12)"/><path class="cls-49" d="M61.58,134l-1,.92-1.67-1.41Z" transform="translate(-1.08 -2.12)"/><path class="cls-4" d="M119.14,56.1l-1.74.71c0-.69,0-1.38.08-2.07l.26-.23Z" transform="translate(-1.08 -2.12)"/><path class="cls-50" d="M108.66,64.33l-1.1.12-.64-.8Z" transform="translate(-1.08 -2.12)"/><path class="cls-4" d="M116.29,58.41a2.74,2.74,0,0,1,.06.56c0,.05-.2.09-.31.13A.94.94,0,0,1,116.29,58.41Z" transform="translate(-1.08 -2.12)"/><path class="cls-4" d="M116.77,54l.76-.08a1.39,1.39,0,0,0,.21.6l-.26.23Z" transform="translate(-1.08 -2.12)"/><path class="cls-19" d="M122.12,48.62v-.75h.75L123,48l-.84.6Z" transform="translate(-1.08 -2.12)"/><path class="cls-34" d="M155.79,9.53l-.66.85Z" transform="translate(-1.08 -2.12)"/><path class="cls-37" d="M177.53,5.65l-.63,1Z" transform="translate(-1.08 -2.12)"/><path class="cls-51" d="M69.58,124.36H69l-.4-.69Z" transform="translate(-1.08 -2.12)"/><path class="cls-38" d="M117.74,54.51a1.39,1.39,0,0,1-.21-.6c4,1.9,8.12,3.75,12.12,5.74,1.13.56,2,1.42,2.18-.68l1.53-2.86,2.26-.78a7.85,7.85,0,0,1,2.36,1c2.42,2.18,3.64.45,4.87-1.35,1.73-2.52-1.57-2.09-2-3.36-.24-.75-.49-1.5-.74-2.25V46.43c2.43-2.86,4.67-3.66,7.71-.39,2.3,2.5,2.89-1.18,4.33-1.92-.27-1.25-.54-2.5-.8-3.75v0c0-1.79,0-3.57,0-5.36,1.7-3,3.62-2.15,4.89.12,2.13,3.79,3.87,2.53,5.77,0l-.87-1.58c0-.24,0-.49,0-.74.25-2.22.5-4.45.74-6.67l2.23-1.52,1.58.73a6.81,6.81,0,0,1,1.2,1.85c1.07,4.23,3.14,3.42,5.55,1.19.22-2.26.45-4.52.67-6.78a6,6,0,0,0,0-.74l.83-2.22,2.18-.85.78.11c.49,1.5,1,3,1.48,4.49,0,5.18,2.68,2,4.53,1.47.24-1.5.49-3,.74-4.51q.81-2.58,1.64-5.16a3.22,3.22,0,0,0,.63-.15l1.52-.65v0l2.16,5.93.24,2.68,3.64-1.14c.79-2.16,1.6-4.32,2.36-6.49a3.4,3.4,0,0,1,4.27-2.49v0c-.07,2.36-.26,4.73-.16,7.08,0,.85.83,2.4,1.15,2.37A4.17,4.17,0,0,0,203.92,20a32.39,32.39,0,0,0,2.26-5.09l1.45-2.27,1.46-.74h0l1.54.65.68.69c-.53,2.36-1.18,4.71-1.5,7.1a2.73,2.73,0,0,0,1.09,2.36,3,3,0,0,0,2.72-.65,23.22,23.22,0,0,0,2.3-4.16l2.94-3,2.31,1.43c-.81,2.58-1.73,5.14-2.35,7.77a2.85,2.85,0,0,0,1,2.46,2.69,2.69,0,0,0,2.51-.45c1.95-1.85,3.7-3.93,5.52-5.92,1.5.76,2.8,1.62,1.67,3.6a38.87,38.87,0,0,0-2.74,5.67c-.3,1,.44,2.25.7,3.38a7.27,7.27,0,0,0,2.61-.68c1.87-1.42,3.57-3.05,5.35-4.6,2.35,1.49,2.27,3.29.66,5.27-1.05,1.51-2.39,2.91-3.05,4.57-.39,1,.31,2.4.52,3.63a11.34,11.34,0,0,0,2.7-.54c2-.92,3.87-2,5.8-3.06,2.15,2.83-.26,4.59-1.54,6.62-1,.95-2.41,1.75-2.79,2.9s.27,2.7.47,4.07c.85-.18,1.71-.37,2.56-.53l5.76-1.07c1.11,4-2.47,5.23-4.41,7.42-2.41,1-2.58,3-1.39,4.77.35.53,2.3,0,3.52,0s2.68-.23,4-.35a1.07,1.07,0,0,0,.48.23c0,1.2,0,2.4,0,3.6l-7.31,6c-.67,3.28.28,4.65,3.74,3.3a7.57,7.57,0,0,1,2.15-.17h0l1.44.78.12-.1c-.07,1.21-.15,2.43-.22,3.64-1.8,1.09-3.65,2.1-5.39,3.28-1,.68-2.71,1.81-2.58,2.41a5.27,5.27,0,0,0,2.49,3.06c3.58,1.92,4.75,4,2.66,5.82a8.22,8.22,0,0,1-4.71,2c-2.67.11-3.71,1.58-3.56,3.7.07,1,1.65,1.87,2.5,2.84s2.56,2.2,2.65,3.39c.18,2.33-1.65,3.42-3.91,3.54-1.24.07-2.82-.45-3.64.13a8,8,0,0,0-2.51,3.77c-.17.5,1.05,1.54,1.69,2.28,1.26,1.45,3.85,2,2.59,5s-3.38,2.7-5.56,2c-1.89-.6-3.09-.84-4.18,1.32-1,1.9-1.27,3.07.55,4.7a6.09,6.09,0,0,1,2,4.45c-.32,2.94-2.39,3.41-5.76,2.1-1.1-.43-2.88-.67-3.65-.09-1.69,1.28-2.7,3.18-.81,5.26l-.49.78.69-.25c.37.63,1.11,1.32,1,1.89a11.05,11.05,0,0,1-1.42,4.53c-.3.44-2.29-.26-3.51-.48-1.53-.27-3.3-1.22-4.52-.74-2.48,1-1.66,3.06-.79,5a9.52,9.52,0,0,1,.7,3.27,3.35,3.35,0,0,1-5,3.36,6.63,6.63,0,0,0-1-.51c-1.57-.52-3.14-1-4.71-1.52-.06,1.5-.13,3-.16,4.49,0,1,.1,2,0,3-.24,3.63-2.49,4.72-5.72,2.81l1-.89c-1.5-5.31-2.5-5.68-6-2.25h0q-.33,3.48-.68,7c-.62,3.9-2.33,4.68-6,2.78l1.45,0-.75-3.77c.36-2.56-.69-3.21-3-2.23-1.7.37-3.1.89-1.54,2.95l0,1c-.43,1.14-.92,2.27-1.28,3.44-1.32,4.22-2.93,5-6.82,2.77-2.48-1.43-4.2-2.3-5.39,1.37-.24.73-2.41.84-3.69,1.23v-8.91l-3.77.59c-.25.75-.5,1.5-.74,2.25-.74,1.26-1.48,2.52-2.21,3.78l-.71.84-3.06-.09,0-3.76a15.42,15.42,0,0,0,.8-2.78,9.61,9.61,0,0,0-.35-2.4l-3.48.62-.62.85q-.06.33-.09.69l-.67.8c0,.25-.09.49-.12.73L144,174.78l-3-.33c0-.69,0-1.39-.07-2.09a40.49,40.49,0,0,0,2.16-5.44c.21-.84-.26-2.45-.87-2.74a3.34,3.34,0,0,0-2.94.63,23.57,23.57,0,0,0-2.89,3.76l-3.09,1.65-1.44-.78.05-1.59,2.19-5.28c.22-1.28,1-3,.53-3.74-1.16-1.69-2.64-1.14-3.54.66-2,.63-2.95,4.08-5.93,2.42-.24-.5-.48-1-.73-1.51l2.25-4.53a8.32,8.32,0,0,0,1.12-1.42c.49-.95.85-2,1.26-3a23.39,23.39,0,0,0-4.62-.36c-.83.08-1.57,1.06-2.35,1.63l-3.81-.52c0-.54.09-1.08.14-1.63l3-4.49c1-1.56,5.77-2.13,1.37-5.15a4.68,4.68,0,0,0,.57-.85c0-.07-.27-.29-.42-.44l-.74,1.06h-2.4l1,1.57-4.61.06c0-.24,0-.48,0-.72l-.75-3.08c0-.2.05-.4.08-.61l4.46-4.46,1.56-.85-.3-4.72-2.79.94-.76.75-4.52-.73-3-.08,2.16-4.4c.36.31,1,.94,1,.88,2.46-1.76,4.87-3.59,7.29-5.41.51-3.32-.13-5.33-4.15-3.82a7.49,7.49,0,0,1-2.55,0l-.83-.67c.25-1.28.51-2.56.77-3.84l7.45-4.4c1.07-3.06.74-5-3.25-4.93-.9,0-1.81-1.7-2.72-2.63,0-.7.05-1.41.08-2.11.24-.07.47-.15.7-.24l.79-.63,6.79-3c1.59-2.41,2-4.19-1.78-4.84-1.27-.22-2.31-1.7-3.45-2.61h0l.65-.78,1.63-3a2.22,2.22,0,0,0,.68-.08c2.4-.6,5.5,1.44,7.15-2.11.94-2,1.67-3.54-1.24-4.49a18.31,18.31,0,0,1-3.75-2.29l.82-.93,1.53-3.59,5.22-.1a2.17,2.17,0,0,0,.67.09l.83.64.83-.5.68-.93h0l.59-.7.18-.74.65-.78c0-.26.07-.51.1-.77l-.75-.79h0l-1.53-.76,0,0-1.52-.77,0,0-1.52-.78,0,0-1.52-.77,0,0-.78-.69a1.55,1.55,0,0,0-.64-.08l-.87-.68a1.22,1.22,0,0,0-.6-.08l-.9-.69-.29-.07h-.3l-.91-.7h0l-1.49-.78h0l-1.52-.76h0l-1.52-.76h0Zm86.88,31.61h0l-.6.72a1.84,1.84,0,0,0-.2.64l-.75.87c-.51,1.23-1,2.45-1.54,3.68l-.37,1.85,1.21-1,2.33-3.57.69-.93v0l.63-.76a1.58,1.58,0,0,0,.15-.64l.65-.87a1.28,1.28,0,0,0,.11-.61l.66-.91v0l.77-1.47h0l.72-1.49a1.53,1.53,0,0,0,.08-.64l.64-.85a1.84,1.84,0,0,0,.12-.66q1.5-4.53,3-9.06l.75-3,.9-10.76-1.7-.08v6.3c-.23,1.25-.47,2.51-.7,3.76l0,1.51a3.82,3.82,0,0,0-.06.68l-.64,1.56c-.77,2.5-1.55,5-2.32,7.48h0l-.7,1.49a1.74,1.74,0,0,0-.09.64l-.64.87a1.5,1.5,0,0,0-.11.63l-.66.89,0,0-.79,1.45h0l-.63.75a1.74,1.74,0,0,0-.17.63Zm-60.76,14.24h0l.61-.72,4.92-8.81-1.2-.72-5.08,8-.61.74a2.2,2.2,0,0,0-.15.72l-.59.78-.16.74-.75,1.54h0l-.72,1.52h0l-3.07,9.66-.73,3c-1.07,4.67-1.61,9.29.81,13.48.23-4.43.47-8.92.72-13.42l0-1.46,2.95-9a1.19,1.19,0,0,0,.07-.59l.64-.89a1.56,1.56,0,0,0,.1-.64l.62-.86a1.74,1.74,0,0,0,.13-.64l.66-.87a1.21,1.21,0,0,0,.1-.59Zm3,56.25.81.7,2.92.83,12,2.91,9.05-.68H172l.36,0,3-.72.75-.09,1.58-.61c10.25-2.73,18.78-8.3,26.19-15.75h0l.87-.74q5.22-6,10.45-11.92l5.17-7.58.61-.78a2.36,2.36,0,0,0,.19-.69l2.94-5.3.6-.75.17-.75,6.75-18,.75-3,1.49-8.27q.38-6,.74-12l-.77-12c-.25-1.26-.5-2.51-.74-3.77l-3.77-7.5-.72-.76-1.52-3.73h0l-4.49-6-5.25-4.5L206.87,30.6h0l-1.54-.7-1.42-.08-9-.69a34.16,34.16,0,0,0-18.76,5.24l-5.25,3-3.37,1.4.51.87,2.86-2.27,5.25-3c1.56-.4,3.11-.82,4.67-1.19,4.69-1.12,9.39-2.21,14.09-3.32l6,.81,11.26,6.7,7.5,9.75c6.75,12.92,7.09,26.55,4.51,40.51v2.23q-.75,2.63-1.49,5.26c-2.87,6.73-5.27,13.71-8.69,20.15-8.68,16.29-21,29-38.44,36-8.59,3.44-17.7,5-26.56,1.33-5.47-2.28-10.38-5.89-14.89-8.52,2.55,3.69,5.4,8.42,10.61,11.05h0l.81.71c.23,0,.45,0,.67.09l.76.72ZM186,44.84l.65,0c1.74,2.25,3.48,4.51,5.23,6.76l1.51,6a27.54,27.54,0,0,0,1.19,4.43c.25.57,1.34.77,2,1.15a6.62,6.62,0,0,0,.49-2c-.14-1.69-.47-3.37-.72-5l-2.26-3.75q-3.74-3.75-7.48-7.51l-.78-.75c-.22,0-.43,0-.64-.06l-1.5-1.56-5.22-2-2.53.9.1.48h2.37l4.3,1.65,2.4,1.39ZM139.31,79.3l.79-1.44c6.08-7.49,13.55-12.69,23.25-14.27h3l.78-.05.87-.63a1.47,1.47,0,0,0,.64-.18l.75-.61.73-.75a1,1,0,0,0,.1-.35c0-.08-.13-.23-.2-.23-2.23.17-4.46.36-6.69.55l0,0-3.08.74c-9,2.16-15.68,7.58-20.89,15l-.8,1.47-.68,2.07Zm.05-8.19-1.5,3-.27,1,.28-1,1.5-3,.27-1Zm51.75,10.5,3,1.36.22-.74-3.23-1.36-2.24-.76c-1.7-1-3.37-2-5.09-2.87-3.06-1.63-6.16-2.35-9.3-.19-4,1.27-6.77,4-8.83,7.62l-3.06,6.67-.78,2.25c-1.47,4.44-.93,6.36,2.31,8.28.69,1.46,1,3.39,2.15,4.3a64.15,64.15,0,0,0,7.59,4.69c6.08,4.8,10.59,4.9,15.54-.15l-3.17,1.48c-6.3,2.89-11.8,0-13.12-6.84a12.29,12.29,0,0,0-.75-2l.7-6c.54-1.72,1.09-3.44,1.63-5.17l5.2-6.74.78-.79,0,0,7.4-3.13Zm-33-34.49-4.6,3.29.81.92,3.79-4.21.17-.32Zm7.58,92.93-5.39-3.4-2.9-5.56c-.51-2.74-1-5.49-1.54-8.23l-2.6-1.69-.39,2.43a21.67,21.67,0,0,0,5.85,13.52l5.36,3.77c2.78,1.81,5.51,3.85,9.5,1.77Zm31.42-53.19c2.08,6.08.85,11.81-1.79,17.4,3.31-5.44,5.72-11,2.53-17.39l-.91-1.78Zm12.08,20.33-9.86,8.86-19.13,6.27.35,1.06A27.63,27.63,0,0,0,200.3,117l9.65-9.06,1.34-2.38-.67-.35Zm-21.08-3.07c1.24-4,2.52-8.05,3.63-12.12.07-.25-1.11-1.15-1.79-1.26-7-1.14-8-.44-9.52,6.73-.16.72-.35,1.43-.52,2.15-.36,1.4-.73,2.79-1.18,4.5Zm-53-24.77c-8.8,19.89-11.84,40.09-3,60.84C124.61,119.49,127.47,99.31,135.15,79.35Zm36.77,94,1.29-.8c-.48-1.42-1-2.84-1.43-4.26L168,170.1ZM141.74,66.62l.66.34,1.34-2.64-.65-.33Zm21.95-24.19-.44-.47-1.72,1.6L162,44Z" transform="translate(-1.08 -2.12)"/><path class="cls-52" d="M116.14,142.36l4.61-.06.48,3.09-.62.66,0,0-.67.63-4.45,2.33-1.63.83c-2,2.27-2.23,4,1.21,5.16,1.57.54,2.84,1.95,4.24,3l-.87.73-2.22,2.46c-1.65,0-3.3-.12-5-.12-1.13,0-2.64-.32-3.29.26-1.13,1-2.49,2.14-1.13,4.38,1,1.61,1,4,.81,6-.06.63-2.29,1-3.53,1.52a17.24,17.24,0,0,1-1.5-3c-.74-2.62-2.14-2.52-4.2-1.43-3.1,1.66-1.36,4.41-1.71,6.68-.53,1.43-1.07,2.85-1.6,4.28l-3.71.08-1.78-1.32c-.51-1.82-1.36-3-3.44-1.78-1.77.36-2.64,3.94-5.22,1.47,0-.7,0-1.4,0-2.09l.69-2.26a3.39,3.39,0,0,0,.07-.7h0l.68-.79c.38-1.42,1.51-3.63,1-4.11-1.87-1.76-3.7-.68-5.08,1.19l-.44.57-2.19.88-3.85-1.45,1-.92,6.71-6.65.21-4.89-4.08,1.17h0l-3-.78a2.32,2.32,0,0,1-.64-.11l.66-3.65,3-2.27,4.53-1.48c2-2.75,1.82-4.73-1.91-5.57a6.42,6.42,0,0,1-1.87-1.21c-.5-.73-1-1.45-1.49-2.18,2.47-.52,3.44-4.36,6.74-3.05,1.54,1.21,2.81,2.78,4.74.12,1.5-2.07.72-2.93-1-3.9.24-.47.47-.95.71-1.42,0-1.51,0-3,0-4.55,0-.24,0-.47,0-.71l3-1.51.76.72c.42.44,1,.8,1.23,1.32,1.76,4.16,2.13,4.24,5.49,1,0-1.26,0-2.52,0-3.79.47-1.5,1-3,1.43-4.49l2.34-1.43,1.49,1.44c-.08,1.86-.24,3.73-.18,5.58,0,.83.5,2.33.78,2.33a4.79,4.79,0,0,0,3.21-.82c.79-.79.94-2.23,1.37-3.38l3-3.76c3.32-.18,3,1.7,2.16,3.84l-2.16,4.4c.37,1.37.74,2.75,1.12,4.12.88-.47,1.79-.91,2.65-1.43a14.33,14.33,0,0,0,1.44-1.16l2.29-.72.76-.75,1.5,3a4.62,4.62,0,0,1-.11.63l-4.4,4.55-1.45.84v3.74Zm-12.72-4.54-.81-.66c-5.46-1.42-10.32,1.21-13.58,7.36-.74,1.76-1.47,3.53-2.21,5.29l-.7,1.54a7.56,7.56,0,0,0,1.52,8.26l3.72,2.24c2.06,2.91,4.45,4.92,8.26,3l4.08-1.28-.45-1-3.63,2.23c-6.45-.43-8.9-3.3-9-10.54l0-2.23,2.13-5.27c2.24-3.47,4.8-6.53,9.08-7.51,5.83.16,9.15,2.3,9,6.58s-1.25,8.32-1.79,11.65c4.65-5.78,5.2-17.2-4.18-19.63l-1.35-.1Zm-8.25,16.54c-.94,4.89-.94,4.86,4.11,4.06,1.59-.25,3.21-.25,4.81-.36,1-3.78,2.09-7.55,2.94-11.37.11-.49-1-1.77-1.51-1.8-7.81-.39-8.29,0-10.16,7.62A14.14,14.14,0,0,0,95.17,154.36ZM93,173.48c-1.06-1.12-2-2.6-2.43-2.46a13.46,13.46,0,0,0-3.27,2.23,15.63,15.63,0,0,0,3.11,2.47C90.7,175.88,91.73,174.57,93,173.48Z" transform="translate(-1.08 -2.12)"/><path class="cls-4" d="M116.18,161.2l2.22-2.46,6.71,3.17c3,1.66,3.88-1.79,5.93-2.42l3,3.08-2.19,5.28-9-3.75c-.24-.25-.48-.49-.71-.74h0l-4.47-1.58Z" transform="translate(-1.08 -2.12)"/><path class="cls-53" d="M144,174.78l2.83-3.19,4.53,1.49c0,1.25,0,2.51,0,3.76,0,.29,0,.59-.05.88Z" transform="translate(-1.08 -2.12)"/><path class="cls-54" d="M161.85,174.6v3.78l-6.75-2.29c.73-1.26,1.47-2.52,2.21-3.78Z" transform="translate(-1.08 -2.12)"/><path class="cls-55" d="M96.68,175.48c.35-2.27-1.39-5,1.71-6.68,2.06-1.09,3.46-1.19,4.2,1.43a17.24,17.24,0,0,0,1.5,3l-6.44-2.86Z" transform="translate(-1.08 -2.12)"/><path class="cls-56" d="M133.25,170.22l3.09-1.65,4.54,3.79c0,.7.05,1.4.07,2.09Z" transform="translate(-1.08 -2.12)"/><path class="cls-57" d="M122.83,164.1l9,3.75c0,.53,0,1.06-.05,1.59l-9.71-5.33.23-.08A4,4,0,0,0,122.83,164.1Z" transform="translate(-1.08 -2.12)"/><path class="cls-58" d="M195.61,164.11l-1,.89-5-2.34c0-.27,0-.54,0-.81h0C192.5,160.24,194,162.21,195.61,164.11Z" transform="translate(-1.08 -2.12)"/><path class="cls-59" d="M184.35,171.61l-1.45,0-3.86-2c0-.34,0-.67,0-1l.78-.72.76.73Z" transform="translate(-1.08 -2.12)"/><path class="cls-60" d="M189.61,161.85c0,.27,0,.54,0,.81-.23,2.05-.47,4.09-.7,6.14Q189.27,165.34,189.61,161.85Z" transform="translate(-1.08 -2.12)"/><path class="cls-61" d="M117.65,161.78l4.47,1.58-1,.11Z" transform="translate(-1.08 -2.12)"/><path class="cls-62" d="M151.29,177.72c0-.29,0-.59.05-.88l3.06.09Z" transform="translate(-1.08 -2.12)"/><path class="cls-63" d="M219.72,139.92l-.69.25.49-.78A.51.51,0,0,1,219.72,139.92Z" transform="translate(-1.08 -2.12)"/><path class="cls-4" d="M121.15,163.47l1-.11h0a1.35,1.35,0,0,0,.21.67l-.23.08Z" transform="translate(-1.08 -2.12)"/><path class="cls-64" d="M211.29,13.25l-.68-.69-1.54-.65h0L198.62,6c1.18-.07,2.59-.6,3.5-.14,5.63,2.88,11.16,6,16.72,9l-2.94,3C213.14,17.56,210.34,17.26,211.29,13.25Z" transform="translate(-1.08 -2.12)"/><path class="cls-65" d="M227.8,20.2c-1.82,2-3.57,4.07-5.52,5.92a2.69,2.69,0,0,1-2.51.45,2.85,2.85,0,0,1-1-2.46c.62-2.63,1.54-5.19,2.35-7.77Z" transform="translate(-1.08 -2.12)"/><path class="cls-66" d="M235.39,27.57c-1.78,1.55-3.48,3.18-5.35,4.6a7.27,7.27,0,0,1-2.61.68c-.26-1.13-1-2.42-.7-3.38a38.87,38.87,0,0,1,2.74-5.67Z" transform="translate(-1.08 -2.12)"/><path class="cls-67" d="M242,37.44c-1.93,1-3.82,2.14-5.8,3.06a11.34,11.34,0,0,1-2.7.54c-.21-1.23-.91-2.64-.52-3.63.66-1.66,2-3.06,3.05-4.57Z" transform="translate(-1.08 -2.12)"/><path class="cls-68" d="M246.48,49.43l-5.76,1.07c-.85.16-1.71.35-2.56.53-.2-1.37-.85-2.89-.47-4.07s1.82-2,2.79-2.9c1.13.95,2.28,1.87,3.38,2.85C244.76,47.72,245.61,48.59,246.48,49.43Z" transform="translate(-1.08 -2.12)"/><path class="cls-69" d="M248.22,61.23c-1.34.12-2.68.27-4,.35s-3.17.57-3.52,0c-1.19-1.81-1-3.75,1.39-4.77Z" transform="translate(-1.08 -2.12)"/><path class="cls-70" d="M198.62,6l10.47,5.89-1.46.74c-4.09-2.3-8.21-4.56-12.25-6.95-.78-.46-1.23-1.48-1.83-2.24Z" transform="translate(-1.08 -2.12)"/><path class="cls-23" d="M79.46,161.87l-6.72,6.65,0,0-.82-.61c-4.34-2.33-8.67-4.7-13.05-6.95a10,10,0,0,0-2.89-.53c-1.44-3.15,1.54-4.42,2.78-6.39a17.81,17.81,0,0,1,2.42-2.58L72,157.26a2.46,2.46,0,0,0,.65.11l3,.78h0Z" transform="translate(-1.08 -2.12)"/><path class="cls-71" d="M80.91,176.12c0,.69,0,1.39,0,2.09-5.51-2.85-11.05-5.64-16.51-8.61-.72-.39-1-1.63-1.44-2.48,1.09.5,2.19,1,3.29,1.49,2.86,1.26,5.73,2.5,8.6,3.75h0l.75.74h0Z" transform="translate(-1.08 -2.12)"/><path class="cls-44" d="M55.93,160.46a10,10,0,0,1,2.89.53c4.38,2.25,8.71,4.62,13.05,6.95l.82.61,0,0-1,.92-9-4.5Z" transform="translate(-1.08 -2.12)"/><path class="cls-72" d="M62.77,164.94l9,4.5,3.85,1.45-.75,1.47c-2.87-1.25-5.74-2.49-8.6-3.75-1.1-.48-2.2-1-3.29-1.49Z" transform="translate(-1.08 -2.12)"/><path class="cls-73" d="M86.15,176.74c2.08-1.21,2.93,0,3.44,1.78Z" transform="translate(-1.08 -2.12)"/><path class="cls-15" d="M193.43,20.9,189.79,22l-.24-2.68Z" transform="translate(-1.08 -2.12)"/><path class="cls-74" d="M206.18,14.93A32.39,32.39,0,0,1,203.92,20a4.17,4.17,0,0,1-2.87,1.32c-.32,0-1.11-1.52-1.15-2.37-.1-2.35.09-4.72.16-7.08,1,.36.46,3.28,2.91,1.7C203.52,13.23,205.08,14.44,206.18,14.93Z" transform="translate(-1.08 -2.12)"/><path class="cls-18" d="M247.32,74.15a7.57,7.57,0,0,0-2.15.17c-3.46,1.35-4.41,0-3.74-3.3Z" transform="translate(-1.08 -2.12)"/><path class="cls-18" d="M248.77,74.94l-1.44-.78Z" transform="translate(-1.08 -2.12)"/><path class="cls-25" d="M151.35,40.37c.26,1.25.53,2.5.8,3.75L150.52,42Z" transform="translate(-1.08 -2.12)"/><path class="cls-75" d="M115.32,99.61c.91.93,1.82,2.65,2.72,2.63,4-.06,4.32,1.87,3.25,4.93l-16.42-8.32-.77-.72h0c.61-.45,1.46-1.44,1.79-1.29,2,.9,3.85,2.27,5.9,3.06C112.78,100.28,114.13,99.74,115.32,99.61Z" transform="translate(-1.08 -2.12)"/><path class="cls-27" d="M104.1,98.13l.77.72Z" transform="translate(-1.08 -2.12)"/><path class="cls-20" d="M161.11,33.55l.87,1.58-1.6-1.52C160.62,33.6,160.87,33.58,161.11,33.55Z" transform="translate(-1.08 -2.12)"/><path class="cls-27" d="M116.89,96.63l-.79.63Z" transform="translate(-1.08 -2.12)"/><path class="cls-76" d="M113.9,116.08a7.49,7.49,0,0,0,2.55,0c4-1.51,4.66.5,4.15,3.82Z" transform="translate(-1.08 -2.12)"/><path class="cls-26" d="M118.37,62.12l2.24.75.76.75,4.49,2.25-.74.75-11.25-6,3.74.75Z" transform="translate(-1.08 -2.12)"/><path class="cls-4" d="M125.12,66.62l.74-.75,5.23,2.94-5.22.1C127.77,67.44,125.35,67.39,125.12,66.62Z" transform="translate(-1.08 -2.12)"/><path class="cls-26" d="M113.82,59.92a5.36,5.36,0,0,1,.05.7l-1-.34Z" transform="translate(-1.08 -2.12)"/><path class="cls-77" d="M178.33,22.4c-.49-1.5-1-3-1.48-4.49l.77-.8,6,2.25c-.25,1.51-.5,3-.74,4.51C181.58,22.66,180.67,20.33,178.33,22.4Z" transform="translate(-1.08 -2.12)"/><path class="cls-78" d="M140.11,49.37c.25.75.5,1.5.74,2.25L125.9,43.3c2.07.74,4.19,1.38,6.2,2.25C134.82,46.73,137.45,48.09,140.11,49.37Z" transform="translate(-1.08 -2.12)"/><path class="cls-79" d="M135.62,55.33l-2.26.78-9.18-6.06c-.7-.47-1.38-1-2.07-1.43L123,48Z" transform="translate(-1.08 -2.12)"/><path class="cls-4" d="M120.62,56.84l1.52.76Z" transform="translate(-1.08 -2.12)"/><path class="cls-4" d="M131.87,62.83l1.52.77Z" transform="translate(-1.08 -2.12)"/><path class="cls-4" d="M119.12,56.09l1.52.76Z" transform="translate(-1.08 -2.12)"/><path class="cls-4" d="M130.38,62.07l1.52.78Z" transform="translate(-1.08 -2.12)"/><path class="cls-4" d="M128.88,61.32l1.52.77Z" transform="translate(-1.08 -2.12)"/><path class="cls-4" d="M122.12,57.59l1.49.78Z" transform="translate(-1.08 -2.12)"/><path class="cls-4" d="M133.37,63.58l1.53.76Z" transform="translate(-1.08 -2.12)"/><path class="cls-4" d="M132.59,69.54l-.83-.64Z" transform="translate(-1.08 -2.12)"/><path class="cls-4" d="M134.1,68.11l-.68.93Z" transform="translate(-1.08 -2.12)"/><path class="cls-4" d="M134.7,67.41l-.59.7Z" transform="translate(-1.08 -2.12)"/><path class="cls-4" d="M135.53,65.89l-.65.78Z" transform="translate(-1.08 -2.12)"/><path class="cls-4" d="M134.88,64.33l.75.79Z" transform="translate(-1.08 -2.12)"/><path class="cls-4" d="M121.37,63.62l-.76-.75Z" transform="translate(-1.08 -2.12)"/><path class="cls-4" d="M118.37,62.12l-.76-.75Z" transform="translate(-1.08 -2.12)"/><path class="cls-4" d="M128.13,60.66l.78.69Z" transform="translate(-1.08 -2.12)"/><path class="cls-4" d="M126.62,59.9l.87.68C127.21,60.35,126.91,60.12,126.62,59.9Z" transform="translate(-1.08 -2.12)"/><path class="cls-4" d="M125.12,59.13l.9.69Z" transform="translate(-1.08 -2.12)"/><path class="cls-4" d="M123.62,58.37l.91.7Z" transform="translate(-1.08 -2.12)"/><path class="cls-52" d="M74.8,142.39l.82.59Z" transform="translate(-1.08 -2.12)"/><path class="cls-80" d="M113.86,83.87l-6.69-2.28Z" transform="translate(-1.08 -2.12)"/><path class="cls-26" d="M119.05,85.38l-.65.78Z" transform="translate(-1.08 -2.12)"/><path class="cls-81" d="M173.1,21.61c-.22,2.26-.45,4.52-.67,6.78l-6.75-3-1.58-.73a29.54,29.54,0,0,0-3.22-3C159,20.27,157,19.16,155,18c0-1.77.41-2,2.06-1,4.81,2.85,9.75,5.46,15.06,8.4.1-1.58.16-2.63.23-3.68h0C172.61,21.63,172.86,21.63,173.1,21.61Z" transform="translate(-1.08 -2.12)"/><path class="cls-82" d="M107.05,124.32c-.43,1.15-.58,2.59-1.37,3.38a4.79,4.79,0,0,1-3.21.82c-.28,0-.76-1.5-.78-2.33-.06-1.85.1-3.72.18-5.58Z" transform="translate(-1.08 -2.12)"/><path class="cls-31" d="M89.88,126.6l-.76-.72h.77l0,0C89.87,126.1,89.87,126.35,89.88,126.6Z" transform="translate(-1.08 -2.12)"/><path class="cls-83" d="M89.88,126.6c0-.25,0-.5,0-.75l6.74,3c-3.36,3.28-3.73,3.2-5.49-1C90.89,127.4,90.3,127,89.88,126.6Z" transform="translate(-1.08 -2.12)"/><path class="cls-4" d="M187.39,13.4l-1.52.65Z" transform="translate(-1.08 -2.12)"/><path class="cls-28" d="M173.1,21.61c-.24,0-.49,0-.73,0l.69-.77A6,6,0,0,1,173.1,21.61Z" transform="translate(-1.08 -2.12)"/><path class="cls-84" d="M144.64,155.09c-5.21-2.63-8.06-7.36-10.61-11.05,4.51,2.63,9.42,6.24,14.89,8.52,8.86,3.67,18,2.11,26.56-1.33,17.4-7,29.76-19.67,38.44-36,3.42-6.44,5.82-13.42,8.69-20.15l1.5.74c0,.75,0,1.5,0,2.25q-2.64,6.74-5.26,13.49a26.8,26.8,0,0,0-2.92,3.77,83,83,0,0,1-17.55,22.9c-5,4.58-10.82,8.24-16.28,12.31a9.59,9.59,0,0,0-1.42.39c-9.48,4.38-19.24,7-29.8,4.93C148.82,155.49,146.72,155.35,144.64,155.09Z" transform="translate(-1.08 -2.12)"/><path class="cls-5" d="M176.13,159.52l-.75.09-3,.72-.36,0h-.36l-3-.19c4.82-1.26,9.27-2.82,12-7.33h0l3.76-2.24,6-3.75a8.37,8.37,0,0,0,.93.95c1.73-1.27,3.4-2.61,5.08-3.93l2.28-2.22,1.43-.85.76-.72h0l.76-.74,3.83-3.72c-.54,1.23-.82,2.7-1.67,3.65-1.36,1.51-1.41,2.64.14,3.88-7.41,7.45-15.94,13-26.19,15.75Z" transform="translate(-1.08 -2.12)"/><path class="cls-56" d="M179.91,99.62c.17-.72.36-1.43.52-2.15,1.55-7.17,2.5-7.87,9.52-6.73.68.11,1.86,1,1.79,1.26-1.11,4.07-2.39,8.09-3.63,12.12Z" transform="translate(-1.08 -2.12)"/><path class="cls-85" d="M179.88,85.43l-5.2,6.74c-2.12-1.59-4.28-3.14-6.35-4.81a32.51,32.51,0,0,1-2.69-2.69c2.06-3.57,4.8-6.35,8.83-7.62l1,.35c-2.74,2.86.67,3.43,1.85,4.7a23.3,23.3,0,0,0,3.36,2.57l0,0Z" transform="translate(-1.08 -2.12)"/><path class="cls-24" d="M231.63,96.64l-6.75,18-4.53-.78-.74-2.24c2.25-4.4,5-8.63,6.61-13.25C227.55,94.65,228.85,94.22,231.63,96.64Z" transform="translate(-1.08 -2.12)"/><path class="cls-86" d="M165.64,84.67a32.51,32.51,0,0,0,2.69,2.69c2.07,1.67,4.23,3.22,6.35,4.81-.54,1.73-1.09,3.45-1.63,5.17-2.72,1.42-9.4-2.41-10.47-6Z" transform="translate(-1.08 -2.12)"/><path class="cls-12" d="M180.68,84.67a23.3,23.3,0,0,1-3.36-2.57c-1.18-1.27-4.59-1.84-1.85-4.7l-1-.35c3.14-2.16,6.24-1.44,9.3.19,1.72.91,3.39,1.91,5.09,2.87l-.78,1.43Z" transform="translate(-1.08 -2.12)"/><path class="cls-87" d="M234.61,73.35q-.37,6-.74,12a9.28,9.28,0,0,0,0-1.44c-3.17-.46-2.78-3.25-3.51-5.28a1.41,1.41,0,0,0-.23.7v1.49l-.75,2.25-3,6.75.78-8.24a8,8,0,0,0,.74-1.61c1-5,2-9.92,3-14.88,0,.25,0,.49,0,.74.48,3.39,1,6.77,1.45,10.16l1-.18Z" transform="translate(-1.08 -2.12)"/><path class="cls-88" d="M135.15,79.35c-7.68,20-10.54,40.14-3,60.84C123.31,119.44,126.35,99.24,135.15,79.35Z" transform="translate(-1.08 -2.12)"/><path class="cls-89" d="M119.27,158c-1.4-1-2.67-2.42-4.24-3-3.44-1.2-3.17-2.89-1.21-5.16h0l.79.6,3.61,1.75,3.81.52,4.59,3.12-2.25,4.53Z" transform="translate(-1.08 -2.12)"/><path class="cls-90" d="M203.9,143.16c-1.55-1.24-1.5-2.37-.14-3.88.85-.95,1.13-2.42,1.67-3.65l4.5-5.94c.22,0,.44-.07.67-.09l4.6.89q-5.22,6-10.45,11.92l-.87.74Z" transform="translate(-1.08 -2.12)"/><path class="cls-91" d="M164.11,101.87c-3.24-1.92-3.78-3.84-2.31-8.28-.66,3.25.79,4.92,3.83,6,2.38.86,4.49,2.47,6.72,3.75a12.29,12.29,0,0,1,.75,2c1.32,6.85,6.82,9.73,13.12,6.84l3.17-1.48c-4.95,5.05-9.46,5-15.54.15a7.33,7.33,0,0,0-4.75-6A32.3,32.3,0,0,1,164.11,101.87Z" transform="translate(-1.08 -2.12)"/><path class="cls-88" d="M227.12,81.62l-.78,8.24-.74.75-.73,2.27c0,.24,0,.49,0,.73l-.74,2.25h0l-1.5-.74q.73-2.64,1.49-5.26c0-.74,0-1.49,0-2.23,2.58-14,2.24-27.59-4.51-40.51v-.75l1.5.75h0l.75,1.5c0,.25,0,.49,0,.74l.74.76v1.49l.73.76c.76,3,1.51,6,2.27,9,.25,4.83.45,9.67.76,14.5.13,1.92.48,3.84.73,5.75Z" transform="translate(-1.08 -2.12)"/><path class="cls-92" d="M231.63,96.64c-2.78-2.42-4.08-2-5.41,1.73-1.64,4.62-4.36,8.85-6.61,13.25h0c-.25,0-.49,0-.73,0l0,0q2.63-6.75,5.26-13.49l3.75-7.5.75-2.25V86.87l.74-.75h0q1.5,3.76,3,7.54Z" transform="translate(-1.08 -2.12)"/><path class="cls-93" d="M180.6,152.85c-2.7,4.51-7.15,6.07-12,7.33l3,.19-9.05.68-1.49-2.94,3-.75h.74l2.26-.75h2.24l1.51-.74h.74l1.51-.75h.74l2.25-.75Z" transform="translate(-1.08 -2.12)"/><path class="cls-94" d="M139.34,77.1c5.21-7.46,11.88-12.88,20.89-15l3.12,1.53c-9.7,1.58-17.17,6.78-23.25,14.27Z" transform="translate(-1.08 -2.12)"/><path class="cls-15" d="M200.3,117a27.63,27.63,0,0,1-19.75,6.39l-.35-1.06,19.13-6.27Z" transform="translate(-1.08 -2.12)"/><path class="cls-6" d="M172.35,103.36c-2.23-1.28-4.34-2.89-6.72-3.75-3-1.1-4.49-2.77-3.83-6l.78-2.25c1.07,3.59,7.75,7.42,10.47,6C172.82,99.35,172.58,101.35,172.35,103.36Z" transform="translate(-1.08 -2.12)"/><path class="cls-95" d="M215.2,130.49l-4.6-.89q1.53-2.59,3.07-5.19c.74-1.26,1.49-2.52,2.24-3.77l.7,0,4.56.82a2.36,2.36,0,0,1-.19.69l-.61.78Z" transform="translate(-1.08 -2.12)"/><path class="cls-96" d="M171.61,155.86h-.74l-1.51.74h-2.24l-2.26.75h-.74l-3,.75c-1.45,0-2.9,0-4.35,0l-6.17,0-2.92-.83-.81-.7h0l-.76-.72c-.22,0-.44-.07-.67-.09l-.81-.71h0c2.08.26,4.18.4,6.23.81,10.56,2.08,20.32-.55,29.8-4.93a9.59,9.59,0,0,1,1.42-.39l0,.06-1.53,2.21h0l-4.49,1.51-2.25.75h-.74Z" transform="translate(-1.08 -2.12)"/><path class="cls-97" d="M212.1,37.37l-11.26-6.7.06-.1,8.43,2-2.46-2,10.48,4.52Z" transform="translate(-1.08 -2.12)"/><path class="cls-83" d="M221.17,121.44l-4.56-.82,1.52-3.75.72-.76c0-.25,0-.5,0-.74l1.49-1.51,4.53.78c-.06.25-.12.5-.17.75l-.6.75Z" transform="translate(-1.08 -2.12)"/><path class="cls-98" d="M212.1,37.37l5.25-2.25,5.25,4.5h0l-6-1.25,3,8v.75Z" transform="translate(-1.08 -2.12)"/><path class="cls-18" d="M140.88,172.36l-4.54-3.79a23.57,23.57,0,0,1,2.89-3.76,3.34,3.34,0,0,1,2.94-.63c.61.29,1.08,1.9.87,2.74A40.49,40.49,0,0,1,140.88,172.36Z" transform="translate(-1.08 -2.12)"/><path class="cls-99" d="M232.38,93.66q-1.51-3.78-3-7.54c0-1,0-2,0-3l.75-2.25V79.37a1.41,1.41,0,0,1,.23-.7c.73,2,.34,4.82,3.51,5.28a9.28,9.28,0,0,1,0,1.44C233.37,88.15,232.88,90.9,232.38,93.66Z" transform="translate(-1.08 -2.12)"/><path class="cls-100" d="M234.61,73.35l-1.27,2.5-1,.18c-.49-3.39-1-6.77-1.45-10.16,3.71.32,1.26-3.47,3-4.48Q234.22,67.38,234.61,73.35Z" transform="translate(-1.08 -2.12)"/><path class="cls-101" d="M211.29,13.25c-.95,4,1.85,4.31,4.61,4.65a23.22,23.22,0,0,1-2.3,4.16,3,3,0,0,1-2.72.65,2.73,2.73,0,0,1-1.09-2.36C210.11,18,210.76,15.61,211.29,13.25Z" transform="translate(-1.08 -2.12)"/><path class="cls-88" d="M155.86,122.86c.51,2.74,1,5.49,1.54,8.23l-2.19-5.6c-.65,4.57,1.61,7.79,4.43,10.76l-.92.87a21.67,21.67,0,0,1-5.85-13.52Z" transform="translate(-1.08 -2.12)"/><path class="cls-102" d="M164.11,101.87a32.3,32.3,0,0,0,5,3,7.33,7.33,0,0,1,4.75,6,64.15,64.15,0,0,1-7.59-4.69C165.12,105.26,164.8,103.33,164.11,101.87Z" transform="translate(-1.08 -2.12)"/><path class="cls-32" d="M143.17,101.28a1.21,1.21,0,0,1-.1.59l-.66.87a1.74,1.74,0,0,1-.13.64c-.21.29-.42.57-.62.86a1.49,1.49,0,0,1-.1.63l-.64.9a1.19,1.19,0,0,1-.07.59l-.72-2.23h0l.72-1.52h0l.75-1.54c.05-.25.1-.5.16-.74l.59-.78a2.2,2.2,0,0,1,.15-.72c.2-.25.4-.5.61-.74l5.08-8,1.2.72-4.92,8.81-.61.72h0Z" transform="translate(-1.08 -2.12)"/><path class="cls-103" d="M126.63,155.87,122,152.75c.78-.57,1.52-1.55,2.35-1.63a23.39,23.39,0,0,1,4.62.36c-.41,1-.77,2-1.26,3A8.32,8.32,0,0,1,126.63,155.87Z" transform="translate(-1.08 -2.12)"/><path class="cls-104" d="M228.61,49.36l.72.76q.76,2.63,1.52,5.25h-1.5l-.74-.77c0-.24,0-.49,0-.73l-3.75-7.51h0l-2.26-6,4.49,5.24h0C227.59,46.87,228.1,48.12,228.61,49.36Z" transform="translate(-1.08 -2.12)"/><path class="cls-105" d="M150.59,158.14l6.17,0c1.45,0,2.9,0,4.35,0l1.49,2.94Z" transform="translate(-1.08 -2.12)"/><path class="cls-48" d="M179.91,99.62l8.2,4.5h-9.38C179.18,102.41,179.55,101,179.91,99.62Z" transform="translate(-1.08 -2.12)"/><path class="cls-12" d="M201.52,92c.51-1.23,1-2.45,1.54-3.68l.75-.87a1.84,1.84,0,0,1,.2-.64l.6-.72h0l.68-.89a1.74,1.74,0,0,1,.17-.63l.63-.75h0l.79-1.45,0,0,.66-.89a1.5,1.5,0,0,1,.11-.63l.64-.87a1.66,1.66,0,0,1,.09-.63l.7-1.5h0l.81,1.62a1.84,1.84,0,0,1-.12.66l-.64.85a1.53,1.53,0,0,1-.08.64l-.72,1.49h0l-.77,1.47v0l-.66.91a1.28,1.28,0,0,1-.11.61l-.65.87a1.58,1.58,0,0,1-.15.64l-.63.76v0l-.69.93-2.33,3.57Z" transform="translate(-1.08 -2.12)"/><path class="cls-106" d="M151.32,173.08l-4.53-1.49c0-.24.07-.48.12-.73l.67-.8q0-.36.09-.69l.62-.85,3.48-.62a9.61,9.61,0,0,1,.35,2.4A15.42,15.42,0,0,1,151.32,173.08Z" transform="translate(-1.08 -2.12)"/><path class="cls-107" d="M176.11,34.37a34.16,34.16,0,0,1,18.76-5.24c0,.24,0,.49,0,.73-4.7,1.11-9.4,2.2-14.09,3.32-1.56.37-3.11.79-4.67,1.19Z" transform="translate(-1.08 -2.12)"/><path class="cls-108" d="M200.3,117l-1-.94,9.86-8.86.76.74Z" transform="translate(-1.08 -2.12)"/><path class="cls-109" d="M137.86,116.86c-.25,4.5-.49,9-.72,13.42-2.42-4.19-1.88-8.81-.81-13.48.07.78.14,1.55.24,2.71Z" transform="translate(-1.08 -2.12)"/><path class="cls-110" d="M197.85,86.87c3.19,6.39.78,11.95-2.53,17.39,2.64-5.59,3.87-11.32,1.79-17.4Z" transform="translate(-1.08 -2.12)"/><path class="cls-111" d="M165.68,25.35l6.75,3c-2.41,2.23-4.48,3-5.55-1.19A6.81,6.81,0,0,0,165.68,25.35Z" transform="translate(-1.08 -2.12)"/><path class="cls-112" d="M171.92,173.33,168,170.1l3.75-1.83c.47,1.42.95,2.84,1.43,4.26Z" transform="translate(-1.08 -2.12)"/><path class="cls-113" d="M193.35,57.62c-.51-2-1-4-1.51-6l2.46,4.73.61-.22-.82-3.76,2.26,3.75c-.38,1.26-.77,2.52-1.18,3.85Z" transform="translate(-1.08 -2.12)"/><path class="cls-114" d="M194.09,52.38l.82,3.76-.61.22-2.46-4.73c-1.75-2.25-3.49-4.51-5.23-6.76h0Q190.34,48.64,194.09,52.38Z" transform="translate(-1.08 -2.12)"/><path class="cls-17" d="M209.91,79.47l-.81-1.62c.77-2.49,1.55-5,2.32-7.48l.64-1.56a3.82,3.82,0,0,1,.06-.68l.77,2.28Q211.41,74.94,209.91,79.47Z" transform="translate(-1.08 -2.12)"/><path class="cls-115" d="M140.13,104.13l.72,2.23c-1,3-2,6-2.95,9l-.84-1.61Q138.59,109,140.13,104.13Z" transform="translate(-1.08 -2.12)"/><path class="cls-116" d="M115.31,130.33a14.33,14.33,0,0,1-1.44,1.16c-.86.52-1.77,1-2.65,1.43-.38-1.37-.75-2.75-1.12-4.12l3,.08Z" transform="translate(-1.08 -2.12)"/><path class="cls-117" d="M233.84,61.39c-1.73,1,.72,4.8-3,4.48,0-.25,0-.49,0-.74-.25-1.76-.49-3.52-.74-5.27,4,2.5,1.56-1.42,2.24-2.24h.75Z" transform="translate(-1.08 -2.12)"/><path class="cls-114" d="M159.64,136.25c-2.82-3-5.08-6.19-4.43-10.76l2.19,5.6,2.9,5.56Z" transform="translate(-1.08 -2.12)"/><path class="cls-118" d="M193.35,57.62,195.17,60c.41-1.33.8-2.59,1.18-3.85.25,1.68.58,3.36.72,5a6.62,6.62,0,0,1-.49,2c-.7-.38-1.79-.58-2-1.15A27.54,27.54,0,0,1,193.35,57.62Z" transform="translate(-1.08 -2.12)"/><path class="cls-4" d="M165.69,140.05l7.89,2.61c-4,2.08-6.72,0-9.5-1.77Z" transform="translate(-1.08 -2.12)"/><path class="cls-70" d="M121.22,145.39c-.15-1-.31-2.06-.47-3.09l-1-1.57h2.4a1.77,1.77,0,0,0,.59.23c4.4,3-.33,3.59-1.37,5.15h0C121.31,145.86,121.27,145.63,121.22,145.39Z" transform="translate(-1.08 -2.12)"/><path class="cls-119" d="M179.86,167.85l-.78.72c-1.56-2.07-.16-2.59,1.54-3l3,2.23.75,3.77-3.73-3Z" transform="translate(-1.08 -2.12)"/><path class="cls-34" d="M134.05,162.57l-3-3.08c.9-1.8,2.38-2.35,3.54-.66C135.1,159.6,134.27,161.29,134.05,162.57Z" transform="translate(-1.08 -2.12)"/><path class="cls-120" d="M212.84,62.84V56.56l1.7.08-.9,10.76C213.37,65.88,213.1,64.36,212.84,62.84Z" transform="translate(-1.08 -2.12)"/><path class="cls-121" d="M178.33,22.4c2.34-2.07,3.25.26,4.53,1.47C181,24.41,178.31,27.58,178.33,22.4Z" transform="translate(-1.08 -2.12)"/><path class="cls-122" d="M165.69,140.05l-1.61.84-5.36-3.77.92-.87.66.4Z" transform="translate(-1.08 -2.12)"/><path class="cls-123" d="M161.85,174.6l-4.53-2.29c.24-.75.49-1.5.74-2.25l3.78,2.28Z" transform="translate(-1.08 -2.12)"/><path class="cls-124" d="M115.45,149.06l4.45-2.33.67-.63,0,0,.75,0h0l-3,4.49Z" transform="translate(-1.08 -2.12)"/><path class="cls-125" d="M161.84,172.34l-3.78-2.28,3.77-.59Z" transform="translate(-1.08 -2.12)"/><path class="cls-126" d="M119.86,131.85l-1.5-3,2.79-.94.3,4.72Z" transform="translate(-1.08 -2.12)"/><path class="cls-127" d="M178.47,40.45l5.22,2-1,1-4.3-1.65Z" transform="translate(-1.08 -2.12)"/><path class="cls-60" d="M195.61,164.11c-1.57-1.9-3.11-3.87-6-2.25C193.11,158.43,194.11,158.8,195.61,164.11Z" transform="translate(-1.08 -2.12)"/><path class="cls-76" d="M194.87,29.86c0-.24,0-.49,0-.73l9,.69-3,.75-.06.1Z" transform="translate(-1.08 -2.12)"/><path class="cls-128" d="M119.27,158l5.11,2.39c.25.5.49,1,.73,1.51l-6.71-3.17Z" transform="translate(-1.08 -2.12)"/><path class="cls-94" d="M168.64,62.73a1.47,1.47,0,0,1-.64.18l-.87.63-.78.05-3-2.27,0,0,6.79,0-.73.75Z" transform="translate(-1.08 -2.12)"/><path class="cls-129" d="M200.9,30.57l3-.75,1.42.07,1.54.71h0l2.46,2Z" transform="translate(-1.08 -2.12)"/><path class="cls-88" d="M113.89,141.61c0-1.25,0-2.49,0-3.74l1.45.69.75,3.08Z" transform="translate(-1.08 -2.12)"/><path class="cls-98" d="M233.1,57.62h-.75l-1.5-2.25q-.75-2.62-1.52-5.25Z" transform="translate(-1.08 -2.12)"/><path class="cls-130" d="M115.45,149.06l2.92,1.54c-.05.55-.09,1.09-.14,1.63l-3.61-1.75-.79-.6h0Z" transform="translate(-1.08 -2.12)"/><path class="cls-98" d="M227.09,45.63l-4.49-5.24v-.77h0Z" transform="translate(-1.08 -2.12)"/><path class="cls-69" d="M163.31,61.32l3,2.27h-3l-3.12-1.53Z" transform="translate(-1.08 -2.12)"/><path class="cls-131" d="M115.35,137l4.4-4.55c0,.34.09.68.14,1L115.43,138C115.4,137.64,115.38,137.34,115.35,137Z" transform="translate(-1.08 -2.12)"/><path class="cls-132" d="M212.84,62.84c.26,1.52.53,3,.8,4.56l-.75,3-.77-2.28c0-.5,0-1,0-1.51.23-1.25.47-2.51.7-3.76Z" transform="translate(-1.08 -2.12)"/><path class="cls-133" d="M158.11,47.12l-3.79,4.21-.81-.92,4.6-3.29Z" transform="translate(-1.08 -2.12)"/><path class="cls-134" d="M176.11,34.37l-5.25,3h0l5.25-3Z" transform="translate(-1.08 -2.12)"/><path class="cls-69" d="M170.12,61.37l-6.79,0c2.23-.19,4.46-.38,6.69-.55.07,0,.19.15.2.23A1,1,0,0,1,170.12,61.37Z" transform="translate(-1.08 -2.12)"/><path class="cls-135" d="M155.86,122.86l-3,.74.39-2.43Z" transform="translate(-1.08 -2.12)"/><path class="cls-136" d="M137.06,113.79l.84,1.61c0,.48,0,1,0,1.46-.36.74-.72,1.49-1.29,2.65-.1-1.16-.17-1.93-.24-2.71C136.57,115.8,136.81,114.8,137.06,113.79Z" transform="translate(-1.08 -2.12)"/><path class="cls-20" d="M183.6,167.84l-3-2.23C182.91,164.63,184,165.28,183.6,167.84Z" transform="translate(-1.08 -2.12)"/><path class="cls-126" d="M115.31,130.33l-2.23-1.45,4.52.73Z" transform="translate(-1.08 -2.12)"/><path class="cls-98" d="M228.61,49.36c-.51-1.24-1-2.49-1.52-3.73C227.59,46.87,228.1,48.12,228.61,49.36Z" transform="translate(-1.08 -2.12)"/><path class="cls-137" d="M191.1,80.87l3.23,1.36-.22.74-3-1.36A6.12,6.12,0,0,0,191.1,80.87Z" transform="translate(-1.08 -2.12)"/><path class="cls-107" d="M170.86,37.37,168,39.64l-.51-.87,3.37-1.4Z" transform="translate(-1.08 -2.12)"/><path class="cls-88" d="M141.74,66.62,143.09,64l.65.33L142.4,67Z" transform="translate(-1.08 -2.12)"/><path class="cls-138" d="M163.69,42.43,162,44l-.44-.47,1.72-1.6Z" transform="translate(-1.08 -2.12)"/><path class="cls-139" d="M210,107.93l-.76-.74,1.43-2,.67.35Z" transform="translate(-1.08 -2.12)"/><path class="cls-71" d="M191.1,80.87a6.12,6.12,0,0,1,0,.74l-3-.07.78-1.43Z" transform="translate(-1.08 -2.12)"/><path class="cls-120" d="M212.84,62.86c-.23,1.25-.47,2.51-.7,3.76C212.37,65.37,212.61,64.11,212.84,62.86Z" transform="translate(-1.08 -2.12)"/><path class="cls-88" d="M137.86,74.11l1.5-3h0l-1.5,3Z" transform="translate(-1.08 -2.12)"/><path class="cls-140" d="M139.31,79.3l-1.45,1.34c.22-.69.45-1.38.68-2.07Z" transform="translate(-1.08 -2.12)"/><path class="cls-141" d="M113.89,141.61l2.21,0c0,.24,0,.48,0,.72Z" transform="translate(-1.08 -2.12)"/><path class="cls-142" d="M178.47,40.45l-.06,1.38H176l-.1-.48Z" transform="translate(-1.08 -2.12)"/><path class="cls-143" d="M182.71,43.48l1-1,1.5,1.56c0,.27-.05.54-.08.81Z" transform="translate(-1.08 -2.12)"/><path class="cls-114" d="M122.75,141a1.77,1.77,0,0,1-.59-.23c.24-.36.49-.71.74-1.06.15.15.45.37.42.44A4.68,4.68,0,0,1,122.75,141Z" transform="translate(-1.08 -2.12)"/><path class="cls-144" d="M119.89,133.49c0-.33-.09-.67-.14-1a4.62,4.62,0,0,0,.11-.63l1.59.79Z" transform="translate(-1.08 -2.12)"/><path class="cls-145" d="M201.52,92l.84.84-1.21,1Z" transform="translate(-1.08 -2.12)"/><path class="cls-61" d="M139.31,79.3l-.77-.73c.27-.49.54-1,.8-1.47.26.25.51.5.76.76Z" transform="translate(-1.08 -2.12)"/><path class="cls-93" d="M172.37,160.33l3-.72Z" transform="translate(-1.08 -2.12)"/><path class="cls-146" d="M197.85,86.87h-.74c-.05-.59-.11-1.18-.17-1.77Z" transform="translate(-1.08 -2.12)"/><path class="cls-84" d="M224.11,87.63c0,.74,0,1.49,0,2.23C224.11,89.12,224.11,88.37,224.11,87.63Z" transform="translate(-1.08 -2.12)"/><path class="cls-147" d="M115.35,137c0,.31.05.61.08.92s-.06.41-.08.61l-1.45-.69Z" transform="translate(-1.08 -2.12)"/><path class="cls-88" d="M137.87,74.12l-.28,1,.27-1Z" transform="translate(-1.08 -2.12)"/><path class="cls-148" d="M185.11,44.87c0-.27,0-.54.08-.81.21,0,.42,0,.64.06,0,.24.08.48.13.72Z" transform="translate(-1.08 -2.12)"/><path class="cls-132" d="M212.06,68.81l-.64,1.56Z" transform="translate(-1.08 -2.12)"/><path class="cls-97" d="M206.87,30.6l-1.54-.71Z" transform="translate(-1.08 -2.12)"/><path class="cls-70" d="M209.07,11.91l1.54.65Z" transform="translate(-1.08 -2.12)"/><path class="cls-88" d="M139.36,71.11l.28-1-.27,1Z" transform="translate(-1.08 -2.12)"/><path class="cls-93" d="M176.13,159.52l1.58-.61Z" transform="translate(-1.08 -2.12)"/><path class="cls-115" d="M141.6,101.07l-.75,1.54Z" transform="translate(-1.08 -2.12)"/><path class="cls-17" d="M207.58,84.58l.77-1.47Z" transform="translate(-1.08 -2.12)"/><path class="cls-17" d="M206.88,82.41l-.79,1.45Z" transform="translate(-1.08 -2.12)"/><path class="cls-17" d="M208.35,83.11l.72-1.49Z" transform="translate(-1.08 -2.12)"/><path class="cls-17" d="M209.1,77.86l-.7,1.5C208.64,78.86,208.87,78.36,209.1,77.86Z" transform="translate(-1.08 -2.12)"/><path class="cls-115" d="M140.86,102.6l-.72,1.52Z" transform="translate(-1.08 -2.12)"/><path class="cls-5" d="M203.88,143.15l.87-.74Z" transform="translate(-1.08 -2.12)"/><path class="cls-133" d="M158.11,47.12l.17-.32-.17.32Z" transform="translate(-1.08 -2.12)"/><path class="cls-114" d="M186,44.84c-.05-.24-.09-.48-.13-.72l.78.75h0Z" transform="translate(-1.08 -2.12)"/><path class="cls-83" d="M220.37,122.91l.61-.78Z" transform="translate(-1.08 -2.12)"/><path class="cls-84" d="M144.62,155.09l.81.71Z" transform="translate(-1.08 -2.12)"/><path class="cls-84" d="M146.1,155.89l.76.72Z" transform="translate(-1.08 -2.12)"/><path class="cls-17" d="M204.69,89.3l.69-.93Z" transform="translate(-1.08 -2.12)"/><path class="cls-84" d="M146.86,156.61l.81.7Z" transform="translate(-1.08 -2.12)"/><path class="cls-115" d="M143.11,98.09c-.21.24-.41.49-.61.74C142.7,98.58,142.9,98.33,143.11,98.09Z" transform="translate(-1.08 -2.12)"/><path class="cls-69" d="M167.13,63.54l.87-.63Z" transform="translate(-1.08 -2.12)"/><path class="cls-115" d="M142.35,99.55l-.59.78Z" transform="translate(-1.08 -2.12)"/><path class="cls-115" d="M143.86,100.36l.61-.72Z" transform="translate(-1.08 -2.12)"/><path class="cls-69" d="M168.64,62.73l.75-.61Z" transform="translate(-1.08 -2.12)"/><path class="cls-17" d="M205.37,88.39l.63-.76Z" transform="translate(-1.08 -2.12)"/><path class="cls-115" d="M143.17,101.28l.69-.92Z" transform="translate(-1.08 -2.12)"/><path class="cls-17" d="M203.81,87.48l-.75.87Z" transform="translate(-1.08 -2.12)"/><path class="cls-115" d="M141.66,104.24c.2-.29.41-.57.62-.86C142.07,103.67,141.86,104,141.66,104.24Z" transform="translate(-1.08 -2.12)"/><path class="cls-17" d="M206.15,87l.65-.87Z" transform="translate(-1.08 -2.12)"/><path class="cls-115" d="M140.92,105.77l.64-.9Z" transform="translate(-1.08 -2.12)"/><path class="cls-17" d="M204.61,86.12l-.6.72Z" transform="translate(-1.08 -2.12)"/><path class="cls-17" d="M205.3,85.23l-.68.89Z" transform="translate(-1.08 -2.12)"/><path class="cls-17" d="M206.91,85.51l.66-.91Z" transform="translate(-1.08 -2.12)"/><path class="cls-12" d="M179.88,85.43l.78-.79Z" transform="translate(-1.08 -2.12)"/><path class="cls-17" d="M206.1,83.85l-.63.75Z" transform="translate(-1.08 -2.12)"/><path class="cls-53" d="M148.29,168.52l-.62.85Z" transform="translate(-1.08 -2.12)"/><path class="cls-53" d="M147.58,170.06l-.67.8Z" transform="translate(-1.08 -2.12)"/><path class="cls-17" d="M207.56,81.49l-.66.89Z" transform="translate(-1.08 -2.12)"/><path class="cls-17" d="M209.15,81l.64-.85Z" transform="translate(-1.08 -2.12)"/><path class="cls-17" d="M208.31,80l-.64.87Z" transform="translate(-1.08 -2.12)"/><path class="cls-24" d="M224.11,116.14l.6-.75Z" transform="translate(-1.08 -2.12)"/><path class="cls-115" d="M142.41,102.74l.66-.87Z" transform="translate(-1.08 -2.12)"/><path class="cls-149" d="M95.17,154.36a14.14,14.14,0,0,1,.19-1.85c1.87-7.61,2.35-8,10.16-7.62.56,0,1.62,1.31,1.51,1.8-.85,3.82-1.93,7.59-2.94,11.38Z" transform="translate(-1.08 -2.12)"/><path class="cls-95" d="M101.77,139.3c-4.28,1-6.84,4-9.07,7.51L89,144.52c3.26-6.15,8.12-8.78,13.58-7.36l.81.66v0c0,.25-.05.51-.08.77Z" transform="translate(-1.08 -2.12)"/><path class="cls-150" d="M90.59,154.31c.13,7.24,2.58,10.11,9,10.54h0c-3.81,1.91-6.2-.1-8.26-3l-1.51-3-2.23-.77,0,1.51a7.56,7.56,0,0,1-1.52-8.26C86.48,154.57,88.17,155.68,90.59,154.31Z" transform="translate(-1.08 -2.12)"/><path class="cls-93" d="M95.17,154.36l8.92,3.71c-1.6.1-3.22.1-4.81.35C94.23,159.22,94.23,159.25,95.17,154.36Z" transform="translate(-1.08 -2.12)"/><path class="cls-110" d="M101.77,139.3l1.58-.73,1.43-.67c9.38,2.43,8.83,13.85,4.18,19.63.54-3.33,1.62-7.47,1.79-11.65S107.6,139.46,101.77,139.3Z" transform="translate(-1.08 -2.12)"/><path class="cls-70" d="M89,144.52l3.67,2.29q-1.08,2.63-2.14,5.27l-3.74-2.27Z" transform="translate(-1.08 -2.12)"/><path class="cls-151" d="M77.81,170l.44-.57c1.38-1.87,3.21-2.95,5.08-1.19.51.48-.62,2.69-1,4.11-.23.26-.46.52-.68.79h0Z" transform="translate(-1.08 -2.12)"/><path class="cls-152" d="M93,173.48c-1.22,1.09-2.25,2.4-2.59,2.24a15.63,15.63,0,0,1-3.11-2.47A13.46,13.46,0,0,1,90.52,171C90.94,170.88,91.89,172.36,93,173.48Z" transform="translate(-1.08 -2.12)"/><path class="cls-70" d="M77.81,170l3.86,3.15a3.39,3.39,0,0,1-.07.7c-2.32,2.34-3.92-1-6-.76h0l-.75-.74h0l.75-1.47Z" transform="translate(-1.08 -2.12)"/><path class="cls-80" d="M86.82,149.81l3.74,2.27,0,2.23c-2.42,1.37-4.11.26-4.47-3C86.35,150.84,86.59,150.33,86.82,149.81Z" transform="translate(-1.08 -2.12)"/><path class="cls-84" d="M79.46,161.87l-3.87-3.72L79.67,157Z" transform="translate(-1.08 -2.12)"/><path class="cls-72" d="M75.62,173.1c2.06-.24,3.66,3.1,6,.76l-.69,2.26Z" transform="translate(-1.08 -2.12)"/><path class="cls-153" d="M89.85,158.87l1.51,3-3.72-2.24c0-.5,0-1,0-1.51Z" transform="translate(-1.08 -2.12)"/><path class="cls-150" d="M99.62,164.85l3.63-2.23.45,1-4.08,1.28Z" transform="translate(-1.08 -2.12)"/><path class="cls-84" d="M75.61,158.15l-3-.78Z" transform="translate(-1.08 -2.12)"/><path class="cls-105" d="M104.78,137.9l-1.43.67c0-.26.05-.52.08-.77Z" transform="translate(-1.08 -2.12)"/><path class="cls-105" d="M103.42,137.82l-.81-.66Z" transform="translate(-1.08 -2.12)"/><path class="cls-38" d="M121.36,146.1l-.75,0c.2-.23.41-.45.62-.67C121.27,145.63,121.31,145.86,121.36,146.1Z" transform="translate(-1.08 -2.12)"/><path class="cls-38" d="M120.57,146.1l-.67.63Z" transform="translate(-1.08 -2.12)"/><path class="cls-70" d="M81.65,173.15c.22-.27.45-.53.68-.79C82.1,172.62,81.87,172.88,81.65,173.15Z" transform="translate(-1.08 -2.12)"/><path class="cls-154" d="M122.33,164a1.35,1.35,0,0,1-.21-.67c.23.25.47.49.71.74A4,4,0,0,1,122.33,164Z" transform="translate(-1.08 -2.12)"/><path class="cls-38" d="M179.86,167.85l.76.73Z" transform="translate(-1.08 -2.12)"/><path class="cls-52" d="M72.69,168.55l-.82-.61Z" transform="translate(-1.08 -2.12)"/><path class="cls-72" d="M74.87,172.36l.75.74Z" transform="translate(-1.08 -2.12)"/><path class="cls-96" d="M190.36,146.86l-6,3.75-2.23,0,0-.06c5.46-4.07,11.29-7.73,16.28-12.31a83,83,0,0,0,17.55-22.9,26.8,26.8,0,0,1,2.92-3.77l0,0a6.06,6.06,0,0,0,0,.74l-.77,2.25h0l-.71.75-.06.71-.72.78-1.52,3h0l-.7.77c-.52,1-1.05,2-1.58,2.94v0l-.71.78L209,128.8l-4.52,5.29-.67.7,0,0-.7.74,0,0-.72.76h0l-.74.75h0l-.74.76h0l-.75.76h0l-.76.76h0l-.76.76h0l-.76.76h0l-.8.69v0l-.74.74v0l-.76.75h0l-1.48.78-.75.74h0l-.76.74h0l-.77.73-.71,0-.76.73Z" transform="translate(-1.08 -2.12)"/><path class="cls-123" d="M229.35,83.11c0,1,0,2,0,3h0l-.74.75c0,.5,0,1,0,1.49l-.75,2.25-3.75,7.5c0-.75,0-1.5,0-2.25h0c.24-.75.49-1.5.74-2.25,0-.24,0-.49,0-.73.24-.76.49-1.51.73-2.27l.74-.75Z" transform="translate(-1.08 -2.12)"/><path class="cls-155" d="M204.5,134.09,209,128.8l.91.89-4.5,5.94-3.83,3.72-.76.74h0l-.76.72-1.43.85-.84-.06a5.87,5.87,0,0,0,.08-.72h0l.76-.76h0l.76-.76h0l.76-.76h0l.75-.76h0l.74-.76h0l.74-.75h0l.72-.76,0,0,.7-.74,0,0Z" transform="translate(-1.08 -2.12)"/><path class="cls-156" d="M191.12,146.13l.71,0,.77-.73h0c.25-.25.5-.5.76-.74h0l.75-.74,1.48-.78.78.79c-1.68,1.32-3.35,2.66-5.08,3.93a8.37,8.37,0,0,1-.93-.95h0Z" transform="translate(-1.08 -2.12)"/><path class="cls-93" d="M182.13,150.64l2.23,0-3.76,2.24Z" transform="translate(-1.08 -2.12)"/><path class="cls-157" d="M196.37,143.88l-.78-.79h0l.76-.75v0l.74-.74v0l.72,0,.84.06Z" transform="translate(-1.08 -2.12)"/><path class="cls-157" d="M200.84,140.09l.76-.74Z" transform="translate(-1.08 -2.12)"/><path class="cls-157" d="M200.08,140.81l.76-.72Z" transform="translate(-1.08 -2.12)"/><path class="cls-23" d="M218.12,114.63l.77-2.25.72-.76h0l.74,2.24-1.49,1.51Z" transform="translate(-1.08 -2.12)"/><path class="cls-88" d="M230.11,59.86c.25,1.75.49,3.51.74,5.27-1,5-2,9.92-3,14.88a8,8,0,0,1-.74,1.61l0,0q.38-6,.76-12,.73-3,1.49-6V62.12c-.24-.75-.49-1.5-.74-2.25v-3l.75-.75v1.49l.74,1.51Z" transform="translate(-1.08 -2.12)"/><path class="cls-123" d="M230.1,79.37v0Z" transform="translate(-1.08 -2.12)"/><path class="cls-52" d="M113.83,149.88l.79.6Z" transform="translate(-1.08 -2.12)"/><path class="cls-158" d="M209.93,129.69l-.91-.89,3.1-4.44.71-.78v0l.85.85q-1.54,2.59-3.07,5.19C210.37,129.62,210.15,129.65,209.93,129.69Z" transform="translate(-1.08 -2.12)"/><path class="cls-159" d="M228.6,56.87v3l.74,2.25c0,.5,0,1,0,1.49q-.75,3-1.49,6-.39,6-.76,12c-.25-1.91-.6-3.83-.73-5.75-.31-4.83-.51-9.67-.76-14.5.54-4.05,2.51-8.08,0-12.16a9.81,9.81,0,0,1-.73-2.83l3.75,7.51Z" transform="translate(-1.08 -2.12)"/><path class="cls-160" d="M224.85,46.36a9.81,9.81,0,0,0,.73,2.83c2.54,4.08.57,8.11,0,12.16-.76-3-1.51-6-2.27-9l-.73-.76c0-.5,0-1,0-1.49l-.74-.76c0-.25,0-.49,0-.74l-.75-1.5h0l.94-3.28c.73.72,1.46,1.46,2.2,2.17a3.14,3.14,0,0,0,.62.36Z" transform="translate(-1.08 -2.12)"/><path class="cls-159" d="M224.86,46.37a3.14,3.14,0,0,1-.62-.36c-.74-.71-1.47-1.45-2.2-2.17l-.94,3.28-1.5-.75-3-8,6,1.25v.77Z" transform="translate(-1.08 -2.12)"/><path class="cls-84" d="M225.6,90.61c-.24.76-.49,1.51-.73,2.27C225.11,92.12,225.36,91.37,225.6,90.61Z" transform="translate(-1.08 -2.12)"/><path class="cls-84" d="M224.85,93.61c-.25.75-.5,1.5-.74,2.25C224.35,95.11,224.6,94.36,224.85,93.61Z" transform="translate(-1.08 -2.12)"/><path class="cls-159" d="M221.1,47.12l.75,1.5Z" transform="translate(-1.08 -2.12)"/><path class="cls-159" d="M222.61,51.61l.73.76Z" transform="translate(-1.08 -2.12)"/><path class="cls-159" d="M221.86,49.36l.74.76Z" transform="translate(-1.08 -2.12)"/><path class="cls-99" d="M227.85,90.61l.75-2.25Z" transform="translate(-1.08 -2.12)"/><path class="cls-99" d="M228.61,86.87l.74-.75Z" transform="translate(-1.08 -2.12)"/><path class="cls-24" d="M219.61,111.62l-.72.76a6.06,6.06,0,0,1,0-.74C219.12,111.62,219.36,111.62,219.61,111.62Z" transform="translate(-1.08 -2.12)"/><path class="cls-105" d="M161.11,158.11l3-.75Z" transform="translate(-1.08 -2.12)"/><path class="cls-105" d="M173.86,155.11l2.25-.75Z" transform="translate(-1.08 -2.12)"/><path class="cls-105" d="M164.86,157.36l2.26-.75Z" transform="translate(-1.08 -2.12)"/><path class="cls-105" d="M171.61,155.86l1.51-.75Z" transform="translate(-1.08 -2.12)"/><path class="cls-105" d="M169.36,156.6l1.51-.74Z" transform="translate(-1.08 -2.12)"/><path class="cls-161" d="M218.12,114.63l.74.74c0,.24,0,.49,0,.74l-.72.76-1.52,3.75-.71,0-.8-.79,1.52-3,.72-.78.06-.71.71-.75Z" transform="translate(-1.08 -2.12)"/><path class="cls-162" d="M215.1,119.85l.8.79-2.23,3.77-.85-.85c.53-1,1.06-2,1.58-2.94l.7-.77Z" transform="translate(-1.08 -2.12)"/><path class="cls-23" d="M218.13,116.87l.72-.76Z" transform="translate(-1.08 -2.12)"/><path class="cls-163" d="M230.11,59.86v-.74l-.74-1.51c0-.5,0-1,0-1.49,0-.25,0-.5,0-.76h1.49l1.5,2.25C231.67,58.44,234.11,62.36,230.11,59.86Z" transform="translate(-1.08 -2.12)"/><path class="cls-117" d="M229.36,55.36c0,.26,0,.51,0,.76l-.75.75v-3c0,.24,0,.49,0,.73l.74.77Z" transform="translate(-1.08 -2.12)"/><path class="cls-159" d="M229.35,55.37l-.74-.77C228.86,54.85,229.1,55.11,229.35,55.37Z" transform="translate(-1.08 -2.12)"/><path class="cls-52" d="M89.85,158.87l-2.23-.77Z" transform="translate(-1.08 -2.12)"/><path class="cls-5" d="M201.61,137.11l-.74.76Z" transform="translate(-1.08 -2.12)"/><path class="cls-5" d="M200.87,137.87l-.75.76Z" transform="translate(-1.08 -2.12)"/><path class="cls-5" d="M200.13,138.62l-.76.76Z" transform="translate(-1.08 -2.12)"/><path class="cls-5" d="M199.38,139.37l-.76.76Z" transform="translate(-1.08 -2.12)"/><path class="cls-5" d="M198.63,140.12l-.76.76Z" transform="translate(-1.08 -2.12)"/><path class="cls-5" d="M197.81,141.6l-.72,0,.8-.69A5.87,5.87,0,0,1,197.81,141.6Z" transform="translate(-1.08 -2.12)"/><path class="cls-5" d="M197.08,141.59l-.74.74Z" transform="translate(-1.08 -2.12)"/><path class="cls-156" d="M196.35,142.35l-.76.75Z" transform="translate(-1.08 -2.12)"/><path class="cls-5" d="M194.11,143.87l-.75.74Z" transform="translate(-1.08 -2.12)"/><path class="cls-23" d="M217.34,116.09l-.72.78Z" transform="translate(-1.08 -2.12)"/><path class="cls-5" d="M192.6,145.35l-.77.73Z" transform="translate(-1.08 -2.12)"/><path class="cls-5" d="M191.12,146.13l-.76.73Z" transform="translate(-1.08 -2.12)"/><path class="cls-161" d="M215.1,119.85l-.7.77Z" transform="translate(-1.08 -2.12)"/><path class="cls-5" d="M193.36,144.61c-.26.24-.51.49-.76.74C192.85,145.1,193.1,144.85,193.36,144.61Z" transform="translate(-1.08 -2.12)"/><path class="cls-162" d="M212.83,123.58l-.71.78Z" transform="translate(-1.08 -2.12)"/><path class="cls-5" d="M204.5,134.09l-.67.7C204.05,134.56,204.27,134.32,204.5,134.09Z" transform="translate(-1.08 -2.12)"/><path class="cls-5" d="M203.79,134.83l-.7.74Z" transform="translate(-1.08 -2.12)"/><path class="cls-5" d="M203.07,135.59l-.72.76Z" transform="translate(-1.08 -2.12)"/><path class="cls-23" d="M218.11,114.63l-.71.75Z" transform="translate(-1.08 -2.12)"/><path class="cls-5" d="M202.35,136.36l-.74.75Z" transform="translate(-1.08 -2.12)"/><path class="cls-117" d="M227.86,69.62q.73-3,1.49-6Q228.6,66.61,227.86,69.62Z" transform="translate(-1.08 -2.12)"/><path class="cls-117" d="M229.34,62.12c-.24-.75-.49-1.5-.74-2.25Z" transform="translate(-1.08 -2.12)"/><path class="cls-117" d="M229.36,57.61l.74,1.51Z" transform="translate(-1.08 -2.12)"/></g><g id="overlay"><path class="cls-164" d="M199.26,28.69c-6.37.84-13.93.68-25.12,7.15-12.6,7.29-24.76,19.86-28.59,25.31-5,9.08-10.82,15.46-16,33-3.76,12.68-1.91,27.29-1,33a34.48,34.48,0,0,0,1.7,6.24,51.41,51.41,0,0,0,5.26,11,25.65,25.65,0,0,0,9.13,10.35c14.19,8.89,33.52-1,37.5-3.5a92.8,92.8,0,0,0,29-29c-6.17-3.83-12.85-8.22-19-12-1.92,2.72-3.07,2.94-8.29,4.33a7.69,7.69,0,0,1-5-.62c-2.66-1.48-2.23-1.65-6.22-4.16-10.31-6.49-10.5-6.68-11.24-8.63-.56-1.48-1.35-5.41,1.16-12.37,1.59-2.21,4.28-7.28,8.11-10,3.17-2.28,7.94-2.45,10.24-3.29,6.41,3.45,10.6,5.27,16.93,8.67a.86.86,0,0,1,.41.47,14.47,14.47,0,0,1,2.57,6.12,14.31,14.31,0,0,1-.2,5.61l18.36,11c1.31-3.22,3-7.69,4.64-13.14a100,100,0,0,0,2.7-10.41,123.69,123.69,0,0,0,1.74-15.48c0-3,.29-17.93-7.42-27.52A33.05,33.05,0,0,0,199.26,28.69Z" transform="translate(-1.08 -2.12)"/></g><g id="Layer_7" data-name="Layer 7"><path class="cls-165" d="M110.58,155.33c-2.71,5.43-10.59,11.25-15,8.76-6.29-3.54-5.17-11.62-2.45-17.05s10-9.2,14.59-6.91S113.3,149.91,110.58,155.33Z" transform="translate(-1.08 -2.12)"/><path class="cls-165" d="M197.18,103.29c-3.36,6.38-13.23,12-18.87,9.35s-6.12-13.74-2.77-20.12,11.72-12,17.36-9.37S200.53,96.91,197.18,103.29Z" transform="translate(-1.08 -2.12)"/></g><g id="Rod_1" data-name="Rod 1"><polygon class="cls-1" points="247.1 132.22 245.76 142.19 178.21 99.57 179.77 90.34 247.1 132.22"/><polygon class="cls-2" points="247.07 132.39 256.75 130.57 255.24 139.93 245.76 142.19 247.07 132.39"/><polygon class="cls-3" points="247.14 132.4 179.78 90.34 189.84 88.5 256.75 130.57 247.14 132.4"/><polygon class="cls-1" points="121.1 160.22 119.76 170.19 95.21 154.57 96.77 145.34 121.1 160.22"/><polygon class="cls-2" points="121.07 160.39 130.75 158.57 129.24 167.93 119.76 170.19 121.07 160.39"/><polygon class="cls-3" points="121.14 160.4 96.78 145.34 106.84 143.5 130.75 158.57 121.14 160.4"/></g><g id="arrow"><path class="cls-166" d="M255.18,116.86l3.08,2.73a.4.4,0,0,1-.26.7l-7.68.2c-.22,0-.36-.26-.23-.57l2.86-7.06c.19-.37.61-.31.77.17" transform="translate(-1.08 -2.12)"/><path class="cls-167" d="M253,118.77c4.95-2.45,12-3.73,16.27.68,4.42,4.56,3.53,12.25,2,17.83-3.05,11-13,23.5-25.55,22.89A12.06,12.06,0,0,1,234,146.89" transform="translate(-1.08 -2.12)"/><path class="cls-166" d="M59.07,101.62l-3.88-1.35a.41.41,0,0,0-.49.57l3.59,6.8c.13.17.4.19.6-.08l4.76-6c.23-.34,0-.67-.52-.58" transform="translate(-1.08 -2.12)"/><path class="cls-167" d="M58.5,104.5C58.22,99,55.88,92.21,50,90.64c-6.14-1.62-12.41,2.92-16.52,7-8.08,8-14.12,22.87-7.47,33.49a12.06,12.06,0,0,0,17.28,3.66" transform="translate(-1.08 -2.12)"/></g><g id="Dotted_Line" data-name="Dotted Line"><line class="cls-168" x1="286.13" y1="158.19" x2="251.9" y2="136.59"/><line class="cls-168" x1="110.38" y1="50.89" x2="40.64" y2="6.9"/><text class="cls-169" transform="translate(7.3 70.51)">Motor Side</text><text class="cls-169" transform="translate(209.81 183.89)">Load Side</text><line class="cls-170" x1="218.91" y1="223.4" x2="124.61" y2="163.91"/><line class="cls-171" x1="218.91" y1="223.4" x2="217.64" y2="222.6"/><line class="cls-172" x1="215.16" y1="221.03" x2="127.12" y2="165.49"/><line class="cls-171" x1="125.88" y1="164.71" x2="124.61" y2="163.91"/><line class="cls-170" x1="17.41" y1="95.9" x2="0.5" y2="85.23"/><line class="cls-171" x1="17.41" y1="95.9" x2="16.14" y2="95.1"/><line class="cls-173" x1="13.26" y1="93.28" x2="3.21" y2="86.94"/><line class="cls-171" x1="1.77" y1="86.03" x2="0.5" y2="85.23"/></g></svg>