<svg xmlns="http://www.w3.org/2000/svg" xmlns:xlink="http://www.w3.org/1999/xlink" viewBox="0 0 299.59 283.71"><defs><style>.cls-1{fill:url(#linear-gradient);}.cls-2{fill:url(#linear-gradient-2);}.cls-3{fill:url(#linear-gradient-3);}.cls-10,.cls-12,.cls-13,.cls-4,.cls-7,.cls-8,.cls-9{fill:none;stroke-miterlimit:10;}.cls-10,.cls-12,.cls-4{stroke-width:2px;}.cls-4{stroke:url(#linear-gradient-4);}.cls-5{fill:url(#linear-gradient-5);}.cls-6{fill:#fff;}.cls-10,.cls-12,.cls-7,.cls-8,.cls-9{stroke:#686868;}.cls-8{stroke-dasharray:1.99 2.98;}.cls-9{stroke-dasharray:2.06 3.09;}.cls-10{stroke-linecap:round;}.cls-11{fill:#666766;}.cls-13{stroke:#231f20;}.cls-14{font-size:22px;fill:#231f20;font-family:OpenSans, Open Sans;}</style><linearGradient id="linear-gradient" x1="147.54" y1="222.93" x2="297.39" y2="222.93" gradientUnits="userSpaceOnUse"><stop offset="0" stop-color="#bdbebe"/><stop offset="0.46" stop-color="#dddede"/><stop offset="1" stop-color="#fff"/></linearGradient><linearGradient id="linear-gradient-2" x1="227.12" y1="196.77" x2="82.85" y2="52.5" gradientUnits="userSpaceOnUse"><stop offset="0.01" stop-color="#314d5d"/><stop offset="0.1" stop-color="#395d70"/><stop offset="0.26" stop-color="#477892"/><stop offset="0.39" stop-color="#4b829f"/><stop offset="0.5" stop-color="#4f8dad"/><stop offset="0.65" stop-color="#4b819e"/><stop offset="0.76" stop-color="#45748e"/><stop offset="1" stop-color="#314d5d"/></linearGradient><linearGradient id="linear-gradient-3" x1="190.94" y1="89.32" x2="70.84" y2="209.42" gradientTransform="translate(132.81 -49.22) rotate(41.78)" gradientUnits="userSpaceOnUse"><stop offset="0" stop-color="#b3e0e4"/><stop offset="1" stop-color="#6ab7cb"/></linearGradient><linearGradient id="linear-gradient-4" x1="174.29" y1="73.63" x2="86.64" y2="225.44" gradientTransform="matrix(0.75, 0.67, -0.67, 0.75, 132.81, -48.9)" gradientUnits="userSpaceOnUse"><stop offset="0" stop-color="#dbeaef"/><stop offset="1" stop-color="#668fa3"/></linearGradient><linearGradient id="linear-gradient-5" x1="132.71" y1="144.5" x2="120.33" y2="144.5" gradientUnits="userSpaceOnUse"><stop offset="0" stop-color="#2d4c5c"/><stop offset="1" stop-color="#142a36"/></linearGradient></defs><title>Load</title><g id="Shadow"><path class="cls-1" d="M304,223.51c0,12.81-43.66,23.2-97.52,23.2-15.21,0-47.93.51-60.76-1-32.61-3.75-36.76-13-36.76-22.23,0-12.8,42.9-24.44,96.76-24.44S304,210.71,304,223.51Z" transform="translate(-4.36 -4.87)"/></g><g id="Back"><path class="cls-2" d="M218,67.16c38.06,41.4,41.33,94.47,8,130.38-2,2.16-17.62,18.35-20,20-35.29,25.12-78.28,3.28-114-35.54-30.27-32.93-58.8-77.74-34-104.25,7.62-8.15,20.9-21.67,28-28.16C120.88,17.9,179.93,25.75,218,67.16Z" transform="translate(-4.36 -4.87)"/></g><g id="front_fill" data-name="front fill"><ellipse class="cls-3" cx="130.89" cy="149.37" rx="84.86" ry="101.46" transform="translate(-70.6 120.32) rotate(-41.78)"/></g><g id="front_outline" data-name="front outline"><ellipse class="cls-4" cx="130.46" cy="149.53" rx="84.86" ry="101.46" transform="translate(-70.82 120.08) rotate(-41.78)"/></g><g id="centre"><circle class="cls-5" cx="126.52" cy="144.5" r="6.19"/><ellipse class="cls-6" cx="132.27" cy="147.28" rx="3.48" ry="4.8" transform="translate(-68.14 169.87) rotate(-56.05)"/></g><g id="Central_Axis_1" data-name="Central Axis 1"><line class="cls-6" x1="0.35" y1="270.32" x2="130.09" y2="139.98"/><line class="cls-7" x1="0.35" y1="270.32" x2="1.06" y2="269.62"/><line class="cls-8" x1="3.16" y1="267.5" x2="128.33" y2="141.75"/><line class="cls-7" x1="129.38" y1="140.69" x2="130.09" y2="139.98"/></g><g id="Central_Axis_2" data-name="Central Axis 2"><line class="cls-6" x1="210.9" y1="58.79" x2="269.06" y2="0.35"/><line class="cls-7" x1="210.9" y1="58.79" x2="211.6" y2="58.08"/><line class="cls-9" x1="213.78" y1="55.89" x2="267.27" y2="2.16"/><line class="cls-7" x1="268.36" y1="1.06" x2="269.06" y2="0.35"/></g><g id="Arrow_Rotation" data-name="Arrow Rotation"><path class="cls-10" d="M46.72,215.78c-3.77-9.4-2.36-19.65,4.44-25.91,9.23-8.49,24.9-6.39,35,4.7S97,221.51,87.74,230c-5.77,5.3-14,6.47-21.92,3.9" transform="translate(-4.36 -4.87)"/><path class="cls-11" d="M68.84,229.39l-2.67,4.07a.52.52,0,0,0-.19.36l-.5,5.25a.51.51,0,0,1-.92.27l-5.94-7.66a.52.52,0,0,1,.33-.83l9.49-2.38A.52.52,0,0,1,68.84,229.39Z" transform="translate(-4.36 -4.87)"/><path class="cls-12" d="M67.13,197.75h0" transform="translate(-4.36 -4.87)"/></g><g id="Label"><line class="cls-13" x1="135.5" y1="227.55" x2="135.5" y2="254.08"/><text class="cls-14" transform="translate(62.03 277.75)">Primary Inertia</text></g></svg>